<?xml version="1.0" encoding="UTF-8"?>
<svg xmlns="http://www.w3.org/2000/svg" xmlns:xlink="http://www.w3.org/1999/xlink" viewBox="0 0 100 100" width="100px" height="100px">
<g id="surface52681423">
<path style=" stroke:none;fill-rule:nonzero;fill:rgb(99.607843%,99.215686%,93.725491%);fill-opacity:1;" d="M 28 54.5 L 28 19 C 28 16.238281 30.238281 14 33 14 L 67 14 C 69.761719 14 72 16.238281 72 19 L 72 54.5 Z M 28 54.5 "/>
<path style=" stroke:none;fill-rule:nonzero;fill:rgb(92.941177%,86.274511%,40.392157%);fill-opacity:1;" d="M 75 42 L 60.5 42 L 60.5 42.5 C 60.5 46.292969 55.691406 49.5 50 49.5 C 44.308594 49.5 39.5 46.292969 39.5 42.5 L 39.5 42 L 25 42 C 22.789062 42 21 43.789062 21 46 L 21 78.667969 C 21 82.71875 24.28125 86 28.332031 86 L 71.664062 86 C 75.71875 86 79 82.71875 79 78.667969 L 79 46 C 79 43.789062 77.210938 42 75 42 Z M 75 42 "/>
<path style=" stroke:none;fill-rule:nonzero;fill:rgb(40.000001%,57.647061%,75.686276%);fill-opacity:1;" d="M 14.5 46.5 L 16.5 46.5 C 17.050781 46.5 17.5 46.949219 17.5 47.5 L 17.5 52.5 C 17.5 53.050781 17.050781 53.5 16.5 53.5 L 14.5 53.5 C 13.949219 53.5 13.5 53.050781 13.5 52.5 L 13.5 47.5 C 13.5 46.949219 13.949219 46.5 14.5 46.5 Z M 14.5 46.5 "/>
<path style=" stroke:none;fill-rule:nonzero;fill:rgb(40.000001%,57.647061%,75.686276%);fill-opacity:1;" d="M 83.5 46.5 L 85.5 46.5 C 86.050781 46.5 86.5 46.949219 86.5 47.5 L 86.5 52.5 C 86.5 53.050781 86.050781 53.5 85.5 53.5 L 83.5 53.5 C 82.949219 53.5 82.5 53.050781 82.5 52.5 L 82.5 47.5 C 82.5 46.949219 82.949219 46.5 83.5 46.5 Z M 83.5 46.5 "/>
<path style=" stroke:none;fill-rule:nonzero;fill:rgb(30.588236%,43.137255%,56.862748%);fill-opacity:1;" d="M 17.5 47.5 L 20.5 47.5 L 20.5 52.5 L 17.5 52.5 Z M 17.5 47.5 "/>
<path style=" stroke:none;fill-rule:nonzero;fill:rgb(30.588236%,43.137255%,56.862748%);fill-opacity:1;" d="M 79.5 47.5 L 82.5 47.5 L 82.5 52.5 L 79.5 52.5 Z M 79.5 47.5 "/>
<path style=" stroke:none;fill-rule:nonzero;fill:rgb(40.000001%,57.647061%,75.686276%);fill-opacity:1;" d="M 72.5 76.5 C 72.5 78.710938 70.710938 80.5 68.5 80.5 L 31.5 80.5 C 29.289062 80.5 27.5 78.710938 27.5 76.5 L 27.5 62.5 C 27.5 60.289062 29.289062 58.5 31.5 58.5 L 68.5 58.5 C 70.710938 58.5 72.5 60.289062 72.5 62.5 Z M 72.5 76.5 "/>
<path style=" stroke:none;fill-rule:nonzero;fill:rgb(61.56863%,76.862746%,90.980393%);fill-opacity:1;" d="M 72.5 64 L 72.5 62.5 C 72.5 60.289062 70.710938 58.5 68.5 58.5 L 31.5 58.5 C 29.289062 58.5 27.5 60.289062 27.5 62.5 L 27.5 64 Z M 72.5 64 "/>
<path style=" stroke:none;fill-rule:nonzero;fill:rgb(99.607843%,99.215686%,93.725491%);fill-opacity:1;" d="M 34.5 68.5 C 34.5 69.605469 33.605469 70.5 32.5 70.5 C 31.394531 70.5 30.5 69.605469 30.5 68.5 C 30.5 67.394531 31.394531 66.5 32.5 66.5 C 33.605469 66.5 34.5 67.394531 34.5 68.5 Z M 34.5 68.5 "/>
<path style=" stroke:none;fill-rule:nonzero;fill:rgb(99.607843%,99.215686%,93.725491%);fill-opacity:1;" d="M 41.5 68.5 C 41.5 69.605469 40.605469 70.5 39.5 70.5 C 38.394531 70.5 37.5 69.605469 37.5 68.5 C 37.5 67.394531 38.394531 66.5 39.5 66.5 C 40.605469 66.5 41.5 67.394531 41.5 68.5 Z M 41.5 68.5 "/>
<path style=" stroke:none;fill-rule:nonzero;fill:rgb(99.607843%,99.215686%,93.725491%);fill-opacity:1;" d="M 48.5 68.5 C 48.5 69.605469 47.605469 70.5 46.5 70.5 C 45.394531 70.5 44.5 69.605469 44.5 68.5 C 44.5 67.394531 45.394531 66.5 46.5 66.5 C 47.605469 66.5 48.5 67.394531 48.5 68.5 Z M 48.5 68.5 "/>
<path style=" stroke:none;fill-rule:nonzero;fill:rgb(99.607843%,99.215686%,93.725491%);fill-opacity:1;" d="M 55.5 68.5 C 55.5 69.605469 54.605469 70.5 53.5 70.5 C 52.394531 70.5 51.5 69.605469 51.5 68.5 C 51.5 67.394531 52.394531 66.5 53.5 66.5 C 54.605469 66.5 55.5 67.394531 55.5 68.5 Z M 55.5 68.5 "/>
<path style=" stroke:none;fill-rule:nonzero;fill:rgb(99.607843%,99.215686%,93.725491%);fill-opacity:1;" d="M 62.5 68.5 C 62.5 69.605469 61.605469 70.5 60.5 70.5 C 59.394531 70.5 58.5 69.605469 58.5 68.5 C 58.5 67.394531 59.394531 66.5 60.5 66.5 C 61.605469 66.5 62.5 67.394531 62.5 68.5 Z M 62.5 68.5 "/>
<path style=" stroke:none;fill-rule:nonzero;fill:rgb(99.607843%,99.215686%,93.725491%);fill-opacity:1;" d="M 69.5 68.5 C 69.5 69.605469 68.605469 70.5 67.5 70.5 C 66.394531 70.5 65.5 69.605469 65.5 68.5 C 65.5 67.394531 66.394531 66.5 67.5 66.5 C 68.605469 66.5 69.5 67.394531 69.5 68.5 Z M 69.5 68.5 "/>
<path style=" stroke:none;fill-rule:nonzero;fill:rgb(99.607843%,99.215686%,93.725491%);fill-opacity:1;" d="M 34.5 75.5 C 34.5 76.605469 33.605469 77.5 32.5 77.5 C 31.394531 77.5 30.5 76.605469 30.5 75.5 C 30.5 74.394531 31.394531 73.5 32.5 73.5 C 33.605469 73.5 34.5 74.394531 34.5 75.5 Z M 34.5 75.5 "/>
<path style=" stroke:none;fill-rule:nonzero;fill:rgb(99.607843%,99.215686%,93.725491%);fill-opacity:1;" d="M 69.5 75.5 C 69.5 76.605469 68.605469 77.5 67.5 77.5 C 66.394531 77.5 65.5 76.605469 65.5 75.5 C 65.5 74.394531 66.394531 73.5 67.5 73.5 C 68.605469 73.5 69.5 74.394531 69.5 75.5 Z M 69.5 75.5 "/>
<path style=" stroke:none;fill-rule:nonzero;fill:rgb(99.607843%,99.215686%,93.725491%);fill-opacity:1;" d="M 60.5 73.5 C 59.605469 73.5 39.871094 73.5 39.5 73.5 C 38.394531 73.5 37.5 74.394531 37.5 75.5 C 37.5 76.605469 38.394531 77.5 39.5 77.5 C 39.871094 77.5 59.605469 77.5 60.5 77.5 C 61.605469 77.5 62.5 76.605469 62.5 75.5 C 62.5 74.394531 61.605469 73.5 60.5 73.5 Z M 60.5 73.5 "/>
<path style=" stroke:none;fill-rule:nonzero;fill:rgb(40.000001%,57.647061%,75.686276%);fill-opacity:1;" d="M 74.5 42.5 L 60.5 42.5 C 60.5 46.292969 55.691406 49.5 50 49.5 C 44.308594 49.5 39.5 46.292969 39.5 42.5 L 25.5 42.5 L 25.5 43.5 C 25.5 45.707031 27.25 47.5 29.457031 47.5 L 35.925781 47.5 C 38.382812 51.625 43.757812 54.5 50 54.5 C 56.238281 54.5 61.617188 51.625 64.070312 47.5 L 70.539062 47.5 C 72.75 47.5 74.496094 45.707031 74.496094 43.5 L 74.496094 42.5 Z M 74.5 42.5 "/>
<path style=" stroke:none;fill-rule:nonzero;fill:rgb(12.156863%,12.941177%,16.862746%);fill-opacity:1;" d="M 16.5 54 L 14.5 54 C 13.671875 54 13 53.328125 13 52.5 L 13 47.5 C 13 46.671875 13.671875 46 14.5 46 L 16.5 46 C 17.328125 46 18 46.671875 18 47.5 L 18 52.5 C 18 53.328125 17.328125 54 16.5 54 Z M 14.5 47 C 14.226562 47 14 47.226562 14 47.5 L 14 52.5 C 14 52.773438 14.226562 53 14.5 53 L 16.5 53 C 16.773438 53 17 52.773438 17 52.5 L 17 47.5 C 17 47.226562 16.773438 47 16.5 47 Z M 14.5 47 "/>
<path style=" stroke:none;fill-rule:nonzero;fill:rgb(12.156863%,12.941177%,16.862746%);fill-opacity:1;" d="M 85.5 54 L 83.5 54 C 82.671875 54 82 53.328125 82 52.5 L 82 47.5 C 82 46.671875 82.671875 46 83.5 46 L 85.5 46 C 86.328125 46 87 46.671875 87 47.5 L 87 52.5 C 87 53.328125 86.328125 54 85.5 54 Z M 83.5 47 C 83.226562 47 83 47.226562 83 47.5 L 83 52.5 C 83 52.773438 83.226562 53 83.5 53 L 85.5 53 C 85.773438 53 86 52.773438 86 52.5 L 86 47.5 C 86 47.226562 85.773438 47 85.5 47 Z M 83.5 47 "/>
<path style=" stroke:none;fill-rule:nonzero;fill:rgb(12.156863%,12.941177%,16.862746%);fill-opacity:1;" d="M 20.5 53 L 17.5 53 C 17.222656 53 17 52.777344 17 52.5 L 17 47.5 C 17 47.222656 17.222656 47 17.5 47 L 20.5 47 C 20.777344 47 21 47.222656 21 47.5 L 21 52.5 C 21 52.777344 20.777344 53 20.5 53 Z M 18 52 L 20 52 L 20 48 L 18 48 Z M 18 52 "/>
<path style=" stroke:none;fill-rule:nonzero;fill:rgb(12.156863%,12.941177%,16.862746%);fill-opacity:1;" d="M 82.5 53 L 79.5 53 C 79.222656 53 79 52.777344 79 52.5 L 79 47.5 C 79 47.222656 79.222656 47 79.5 47 L 82.5 47 C 82.777344 47 83 47.222656 83 47.5 L 83 52.5 C 83 52.777344 82.777344 53 82.5 53 Z M 80 52 L 82 52 L 82 48 L 80 48 Z M 80 52 "/>
<path style=" stroke:none;fill-rule:nonzero;fill:rgb(12.156863%,12.941177%,16.862746%);fill-opacity:1;" d="M 71.667969 87 L 28.332031 87 C 23.738281 87 20 83.261719 20 78.667969 L 20 46 C 20 43.242188 22.242188 41 25 41 L 27 41 L 27 43 L 25 43 C 23.347656 43 22 44.347656 22 46 L 22 78.667969 C 22 82.160156 24.839844 85 28.332031 85 L 71.667969 85 C 75.160156 85 78 82.160156 78 78.667969 L 78 46 C 78 44.347656 76.652344 43 75 43 L 73 43 L 73 41 L 75 41 C 77.757812 41 80 43.242188 80 46 L 80 78.667969 C 80 83.261719 76.261719 87 71.667969 87 Z M 71.667969 87 "/>
<path style=" stroke:none;fill-rule:nonzero;fill:rgb(12.156863%,12.941177%,16.862746%);fill-opacity:1;" d="M 68.5 81 L 31.5 81 C 29.019531 81 27 78.980469 27 76.5 L 27 62.5 C 27 60.019531 29.019531 58 31.5 58 L 68.5 58 C 70.980469 58 73 60.019531 73 62.5 L 73 76.5 C 73 78.980469 70.980469 81 68.5 81 Z M 31.5 59 C 29.570312 59 28 60.570312 28 62.5 L 28 76.5 C 28 78.429688 29.570312 80 31.5 80 L 68.5 80 C 70.429688 80 72 78.429688 72 76.5 L 72 62.5 C 72 60.570312 70.429688 59 68.5 59 Z M 31.5 59 "/>
<path style=" stroke:none;fill-rule:nonzero;fill:rgb(12.156863%,12.941177%,16.862746%);fill-opacity:1;" d="M 32.5 71 C 31.121094 71 30 69.878906 30 68.5 C 30 67.121094 31.121094 66 32.5 66 C 33.878906 66 35 67.121094 35 68.5 C 35 69.878906 33.878906 71 32.5 71 Z M 32.5 67 C 31.671875 67 31 67.671875 31 68.5 C 31 69.328125 31.671875 70 32.5 70 C 33.328125 70 34 69.328125 34 68.5 C 34 67.671875 33.328125 67 32.5 67 Z M 32.5 67 "/>
<path style=" stroke:none;fill-rule:nonzero;fill:rgb(12.156863%,12.941177%,16.862746%);fill-opacity:1;" d="M 39.5 71 C 38.121094 71 37 69.878906 37 68.5 C 37 67.121094 38.121094 66 39.5 66 C 40.878906 66 42 67.121094 42 68.5 C 42 69.878906 40.878906 71 39.5 71 Z M 39.5 67 C 38.671875 67 38 67.671875 38 68.5 C 38 69.328125 38.671875 70 39.5 70 C 40.328125 70 41 69.328125 41 68.5 C 41 67.671875 40.328125 67 39.5 67 Z M 39.5 67 "/>
<path style=" stroke:none;fill-rule:nonzero;fill:rgb(12.156863%,12.941177%,16.862746%);fill-opacity:1;" d="M 46.5 71 C 45.121094 71 44 69.878906 44 68.5 C 44 67.121094 45.121094 66 46.5 66 C 47.878906 66 49 67.121094 49 68.5 C 49 69.878906 47.878906 71 46.5 71 Z M 46.5 67 C 45.671875 67 45 67.671875 45 68.5 C 45 69.328125 45.671875 70 46.5 70 C 47.328125 70 48 69.328125 48 68.5 C 48 67.671875 47.328125 67 46.5 67 Z M 46.5 67 "/>
<path style=" stroke:none;fill-rule:nonzero;fill:rgb(12.156863%,12.941177%,16.862746%);fill-opacity:1;" d="M 53.5 71 C 52.121094 71 51 69.878906 51 68.5 C 51 67.121094 52.121094 66 53.5 66 C 54.878906 66 56 67.121094 56 68.5 C 56 69.878906 54.878906 71 53.5 71 Z M 53.5 67 C 52.671875 67 52 67.671875 52 68.5 C 52 69.328125 52.671875 70 53.5 70 C 54.328125 70 55 69.328125 55 68.5 C 55 67.671875 54.328125 67 53.5 67 Z M 53.5 67 "/>
<path style=" stroke:none;fill-rule:nonzero;fill:rgb(12.156863%,12.941177%,16.862746%);fill-opacity:1;" d="M 60.5 71 C 59.121094 71 58 69.878906 58 68.5 C 58 67.121094 59.121094 66 60.5 66 C 61.878906 66 63 67.121094 63 68.5 C 63 69.878906 61.878906 71 60.5 71 Z M 60.5 67 C 59.671875 67 59 67.671875 59 68.5 C 59 69.328125 59.671875 70 60.5 70 C 61.328125 70 62 69.328125 62 68.5 C 62 67.671875 61.328125 67 60.5 67 Z M 60.5 67 "/>
<path style=" stroke:none;fill-rule:nonzero;fill:rgb(12.156863%,12.941177%,16.862746%);fill-opacity:1;" d="M 67.5 71 C 66.121094 71 65 69.878906 65 68.5 C 65 67.121094 66.121094 66 67.5 66 C 68.878906 66 70 67.121094 70 68.5 C 70 69.878906 68.878906 71 67.5 71 Z M 67.5 67 C 66.671875 67 66 67.671875 66 68.5 C 66 69.328125 66.671875 70 67.5 70 C 68.328125 70 69 69.328125 69 68.5 C 69 67.671875 68.328125 67 67.5 67 Z M 67.5 67 "/>
<path style=" stroke:none;fill-rule:nonzero;fill:rgb(12.156863%,12.941177%,16.862746%);fill-opacity:1;" d="M 32.5 78 C 31.121094 78 30 76.878906 30 75.5 C 30 74.121094 31.121094 73 32.5 73 C 33.878906 73 35 74.121094 35 75.5 C 35 76.878906 33.878906 78 32.5 78 Z M 32.5 74 C 31.671875 74 31 74.671875 31 75.5 C 31 76.328125 31.671875 77 32.5 77 C 33.328125 77 34 76.328125 34 75.5 C 34 74.671875 33.328125 74 32.5 74 Z M 32.5 74 "/>
<path style=" stroke:none;fill-rule:nonzero;fill:rgb(12.156863%,12.941177%,16.862746%);fill-opacity:1;" d="M 60.5 78 L 39.5 78 C 38.121094 78 37 76.878906 37 75.5 C 37 74.121094 38.121094 73 39.5 73 L 60.5 73 C 61.878906 73 63 74.121094 63 75.5 C 63 76.878906 61.878906 78 60.5 78 Z M 39.5 74 C 38.671875 74 38 74.671875 38 75.5 C 38 76.328125 38.671875 77 39.5 77 L 60.5 77 C 61.328125 77 62 76.328125 62 75.5 C 62 74.671875 61.328125 74 60.5 74 Z M 39.5 74 "/>
<path style=" stroke:none;fill-rule:nonzero;fill:rgb(12.156863%,12.941177%,16.862746%);fill-opacity:1;" d="M 67.5 78 C 66.121094 78 65 76.878906 65 75.5 C 65 74.121094 66.121094 73 67.5 73 C 68.878906 73 70 74.121094 70 75.5 C 70 76.878906 68.878906 78 67.5 78 Z M 67.5 74 C 66.671875 74 66 74.671875 66 75.5 C 66 76.328125 66.671875 77 67.5 77 C 68.328125 77 69 76.328125 69 75.5 C 69 74.671875 68.328125 74 67.5 74 Z M 67.5 74 "/>
<path style=" stroke:none;fill-rule:nonzero;fill:rgb(12.156863%,12.941177%,16.862746%);fill-opacity:1;" d="M 73 42 L 71 42 L 71 19 C 71 16.792969 69.207031 15 67 15 L 33 15 C 30.792969 15 29 16.792969 29 19 L 29 42 L 27 42 L 27 19 C 27 15.691406 29.691406 13 33 13 L 67 13 C 70.308594 13 73 15.691406 73 19 Z M 73 42 "/>
<path style=" stroke:none;fill-rule:nonzero;fill:rgb(12.156863%,12.941177%,16.862746%);fill-opacity:1;" d="M 50 55 C 43.925781 55 38.328125 52.261719 35.648438 48 L 29.457031 48 C 27 48 25 45.980469 25 43.5 L 25 42.5 C 25 42.222656 25.222656 42 25.5 42 L 39.5 42 C 39.777344 42 40 42.222656 40 42.5 C 40 46.023438 44.578125 49 50 49 C 55.421875 49 60 46.023438 60 42.5 C 60 42.222656 60.222656 42 60.5 42 L 74.5 42 C 74.777344 42 75 42.222656 75 42.5 L 75 43.5 C 75 45.980469 73 48 70.542969 48 L 64.351562 48 C 61.671875 52.261719 56.074219 55 50 55 Z M 26 43 L 26 43.5 C 26 45.429688 27.550781 47 29.457031 47 L 35.929688 47 C 36.105469 47 36.269531 47.09375 36.359375 47.242188 C 38.800781 51.347656 44.15625 54 50 54 C 55.84375 54 61.199219 51.347656 63.644531 47.242188 C 63.734375 47.09375 63.898438 47 64.074219 47 L 70.542969 47 C 72.449219 47 74 45.429688 74 43.5 L 74 43 L 60.976562 43 C 60.582031 46.84375 55.71875 50 50 50 C 44.28125 50 39.417969 46.84375 39.023438 43 Z M 26 43 "/>
<path style=" stroke:none;fill-rule:nonzero;fill:rgb(12.156863%,12.941177%,16.862746%);fill-opacity:1;" d="M 58.5 64 L 30.5 64 C 30.222656 64 30 63.777344 30 63.5 C 30 63.222656 30.222656 63 30.5 63 L 58.5 63 C 58.777344 63 59 63.222656 59 63.5 C 59 63.777344 58.777344 64 58.5 64 Z M 58.5 64 "/>
<path style=" stroke:none;fill-rule:nonzero;fill:rgb(12.156863%,12.941177%,16.862746%);fill-opacity:1;" d="M 66.5 64 L 63.5 64 C 63.222656 64 63 63.777344 63 63.5 C 63 63.222656 63.222656 63 63.5 63 L 66.5 63 C 66.777344 63 67 63.222656 67 63.5 C 67 63.777344 66.777344 64 66.5 64 Z M 66.5 64 "/>
<path style=" stroke:none;fill-rule:nonzero;fill:rgb(12.156863%,12.941177%,16.862746%);fill-opacity:1;" d="M 69.5 64 L 68.5 64 C 68.222656 64 68 63.777344 68 63.5 C 68 63.222656 68.222656 63 68.5 63 L 69.5 63 C 69.777344 63 70 63.222656 70 63.5 C 70 63.777344 69.777344 64 69.5 64 Z M 69.5 64 "/>
<path style=" stroke:none;fill-rule:nonzero;fill:rgb(12.156863%,12.941177%,16.862746%);fill-opacity:1;" d="M 41.5 22 L 35.5 22 C 35.222656 22 35 21.777344 35 21.5 C 35 21.222656 35.222656 21 35.5 21 L 41.5 21 C 41.777344 21 42 21.222656 42 21.5 C 42 21.777344 41.777344 22 41.5 22 Z M 63.5 22 L 44.625 22 C 44.347656 22 44.125 21.777344 44.125 21.5 C 44.125 21.222656 44.347656 21 44.625 21 L 63.5 21 C 63.777344 21 64 21.222656 64 21.5 C 64 21.777344 63.777344 22 63.5 22 Z M 59.5 29 L 48.625 29 C 48.347656 29 48.125 28.777344 48.125 28.5 C 48.125 28.222656 48.347656 28 48.625 28 L 59.5 28 C 59.777344 28 60 28.222656 60 28.5 C 60 28.777344 59.777344 29 59.5 29 Z M 64.5 29 L 61.625 29 C 61.347656 29 61.125 28.777344 61.125 28.5 C 61.125 28.222656 61.347656 28 61.625 28 L 64.5 28 C 64.777344 28 65 28.222656 65 28.5 C 65 28.777344 64.777344 29 64.5 29 Z M 45.5 29 L 35.5 29 C 35.222656 29 35 28.777344 35 28.5 C 35 28.222656 35.222656 28 35.5 28 L 45.5 28 C 45.777344 28 46 28.222656 46 28.5 C 46 28.777344 45.777344 29 45.5 29 Z M 63.5 36 L 54.625 36 C 54.347656 36 54.125 35.777344 54.125 35.5 C 54.125 35.222656 54.347656 35 54.625 35 L 63.5 35 C 63.777344 35 64 35.222656 64 35.5 C 64 35.777344 63.777344 36 63.5 36 Z M 52.5 36 L 35.5 36 C 35.222656 36 35 35.777344 35 35.5 C 35 35.222656 35.222656 35 35.5 35 L 52.5 35 C 52.777344 35 53 35.222656 53 35.5 C 53 35.777344 52.777344 36 52.5 36 Z M 52.5 36 "/>
</g>
</svg>
