<?xml version="1.0" encoding="UTF-8"?>
<svg xmlns="http://www.w3.org/2000/svg" xmlns:xlink="http://www.w3.org/1999/xlink" viewBox="0 0 64 64" width="64px" height="64px">
<g id="surface60747993">
<path style=" stroke:none;fill-rule:nonzero;fill:rgb(100%,100%,100%);fill-opacity:1;" d="M 39 18 L 11 28.5 L 11 42.5 L 25 49.5 L 25 35.5 L 53 25 Z M 39 18 "/>
<path style=" stroke:none;fill-rule:nonzero;fill:rgb(44.313726%,76.078433%,100%);fill-opacity:1;" d="M 53.59375 24.125 C 53.316406 23.914062 52.964844 23.878906 52.613281 24.019531 L 24.613281 34.519531 C 24.054688 34.730469 23.808594 35.324219 23.984375 35.886719 C 24.160156 36.304688 24.546875 36.550781 24.964844 36.550781 L 24.964844 48.378906 L 24.578125 48.519531 C 24.019531 48.730469 23.773438 49.324219 23.949219 49.886719 C 24.125 50.304688 24.511719 50.550781 24.929688 50.550781 C 25.070312 50.550781 25.175781 50.515625 25.316406 50.480469 L 53.316406 39.980469 C 53.734375 39.839844 53.980469 39.421875 53.980469 39 L 53.980469 25 C 54.050781 24.648438 53.875 24.335938 53.59375 24.125 Z M 53.59375 24.125 "/>
<path style=" stroke:none;fill-rule:nonzero;fill:rgb(26.666668%,29.411766%,32.941177%);fill-opacity:1;" d="M 25 36.550781 C 24.824219 36.550781 24.683594 36.515625 24.546875 36.445312 L 10.546875 29.445312 C 10.160156 29.234375 9.914062 28.851562 9.949219 28.429688 C 9.984375 28.011719 10.230469 27.660156 10.613281 27.484375 L 17.824219 24.789062 C 18.386719 24.578125 18.980469 24.859375 19.191406 25.421875 C 19.398438 25.980469 19.121094 26.574219 18.558594 26.785156 L 13.625 28.640625 L 25.070312 34.34375 L 31.859375 31.789062 C 32.421875 31.578125 33.015625 31.859375 33.226562 32.421875 C 33.433594 32.980469 33.15625 33.574219 32.59375 33.785156 L 25.386719 36.480469 C 25.246094 36.515625 25.140625 36.550781 25 36.550781 Z M 47.574219 28.078125 C 47.15625 28.078125 46.734375 27.835938 46.59375 27.414062 C 46.386719 26.855469 46.664062 26.261719 47.226562 26.050781 L 50.375 24.859375 L 38.929688 19.15625 L 34.308594 20.90625 C 33.75 21.113281 33.15625 20.835938 32.945312 20.273438 C 32.734375 19.714844 33.015625 19.121094 33.574219 18.910156 L 38.613281 17.019531 C 38.894531 16.914062 39.175781 16.949219 39.453125 17.054688 L 53.453125 24.054688 C 53.839844 24.230469 54.050781 24.613281 54.050781 25.035156 C 54.050781 25.453125 53.769531 25.804688 53.386719 25.980469 L 47.960938 28.011719 C 47.855469 28.046875 47.714844 28.078125 47.574219 28.078125 Z M 47.574219 28.078125 "/>
<path style=" stroke:none;fill-rule:nonzero;fill:rgb(100%,100%,100%);fill-opacity:1;" d="M 43.898438 44.601562 L 43.898438 28.851562 L 27.101562 20.101562 L 19.75 22.898438 L 36.199219 31.300781 L 36.199219 47.398438 Z M 43.898438 44.601562 "/>
<path style=" stroke:none;fill-rule:nonzero;fill:rgb(26.666668%,29.411766%,32.941177%);fill-opacity:1;" d="M 36.199219 48.449219 C 35.988281 48.449219 35.78125 48.378906 35.605469 48.273438 C 35.324219 48.066406 35.148438 47.75 35.148438 47.398438 L 35.148438 31.929688 L 19.261719 23.84375 C 18.875 23.671875 18.664062 23.285156 18.699219 22.863281 C 18.734375 22.445312 18.980469 22.09375 19.363281 21.953125 L 26.714844 19.15625 C 26.996094 19.050781 27.308594 19.050781 27.589844 19.191406 L 44.390625 27.941406 C 44.738281 28.113281 44.949219 28.464844 44.949219 28.886719 L 44.949219 44.636719 C 44.949219 45.089844 44.671875 45.476562 44.25 45.613281 L 36.550781 48.414062 C 36.445312 48.414062 36.304688 48.449219 36.199219 48.449219 Z M 22.339844 23.039062 L 36.691406 30.355469 C 37.039062 30.53125 37.25 30.878906 37.25 31.300781 L 37.25 45.894531 L 42.851562 43.863281 L 42.851562 29.480469 L 27.03125 21.253906 Z M 43.898438 44.601562 Z M 25 43.550781 C 24.824219 43.550781 24.683594 43.515625 24.546875 43.445312 L 10.546875 36.445312 C 10.019531 36.199219 9.808594 35.570312 10.089844 35.046875 C 10.335938 34.519531 10.964844 34.308594 11.488281 34.589844 L 25.488281 41.589844 C 26.015625 41.835938 26.226562 42.464844 25.945312 42.988281 C 25.769531 43.339844 25.386719 43.550781 25 43.550781 Z M 25 50.550781 C 24.824219 50.550781 24.683594 50.515625 24.546875 50.445312 L 10.546875 43.445312 C 10.019531 43.199219 9.808594 42.570312 10.089844 42.046875 C 10.335938 41.519531 10.964844 41.308594 11.488281 41.589844 L 25.488281 48.589844 C 26.015625 48.835938 26.226562 49.464844 25.945312 49.988281 C 25.769531 50.339844 25.386719 50.550781 25 50.550781 Z M 25 50.550781 "/>
</g>
</svg>
