<?xml version="1.0" encoding="UTF-8"?>
<svg xmlns="http://www.w3.org/2000/svg" xmlns:xlink="http://www.w3.org/1999/xlink" viewBox="0 0 64 64" width="64px" height="64px">
<g id="surface61291968">
<path style=" stroke:none;fill-rule:nonzero;fill:rgb(0%,0%,0%);fill-opacity:1;" d="M 18 8 L 18 16 L 22 16 L 22 8 Z M 42 8 L 42 16 L 46 16 L 46 8 Z M 10 14 C 8.796875 14 8 14.796875 8 16 L 8 22 C 8 23.203125 8.796875 24 10 24 L 10 56 L 54 56 L 54 24 C 55.203125 24 56 23.203125 56 22 L 56 16 C 56 14.796875 55.203125 14 54 14 L 48 14 L 48 18 L 40 18 L 40 14 L 24 14 L 24 18 L 16 18 L 16 14 Z M 14 24 L 50 24 L 50 52 L 14 52 Z M 18 28 L 18 32 L 22 32 L 22 28 Z M 26 28 L 26 32 L 30 32 L 30 28 Z M 34 28 L 34 32 L 38 32 L 38 28 Z M 42 28 L 42 32 L 46 32 L 46 28 Z M 32 34 L 32 42 L 40 42 L 40 34 Z M 18 36 L 18 40 L 22 40 L 22 36 Z M 26 36 L 26 40 L 30 40 L 30 36 Z M 42 36 L 42 40 L 46 40 L 46 36 Z M 18 44 L 18 48 L 22 48 L 22 44 Z M 26 44 L 26 48 L 30 48 L 30 44 Z M 34 44 L 34 48 L 38 48 L 38 44 Z M 42 44 L 42 48 L 46 48 L 46 44 Z M 42 44 "/>
</g>
</svg>
