<svg fill="#000000" xmlns="http://www.w3.org/2000/svg"  viewBox="0 0 24 24" width="64px" height="64px"><path d="M 7.125 0.9375 C 4.007813 2.199219 1.492188 4.65625 0.125 7.71875 L 2.03125 8.34375 C 3.175781 5.898438 5.199219 3.9375 7.6875 2.875 Z M 16.875 0.9375 L 16.3125 2.875 C 18.800781 3.9375 20.824219 5.902344 21.96875 8.34375 L 23.875 7.71875 C 22.507813 4.65625 19.992188 2.199219 16.875 0.9375 Z M 12 4 C 6.476563 4 2 8.476563 2 14 C 2 19.523438 6.476563 24 12 24 C 17.523438 24 22 19.523438 22 14 C 22 8.476563 17.523438 4 12 4 Z M 12 6 C 16.417969 6 20 9.582031 20 14 C 20 18.417969 16.417969 22 12 22 C 7.582031 22 4 18.417969 4 14 C 4 9.582031 7.582031 6 12 6 Z M 11.5 7 L 11.125 14.0625 L 11.34375 14.90625 L 16.25 19.3125 L 17.0625 18.5 L 12.875 13.96875 L 12.53125 7 Z"/></svg>