<svg xmlns="http://www.w3.org/2000/svg" viewBox="0 0 50 50"><path d="M19.875 4.40625C16.195313 4.472656 13.507813 5.570313 11.875 7.71875C9.941406 10.265625 9.589844 14.144531 10.8125 19.21875C10.363281 19.769531 10.023438 20.605469 10.15625 21.71875C10.421875 23.921875 11.277344 24.828125 12 25.1875C12.34375 26.917969 13.296875 28.863281 14.21875 29.78125L14.21875 30.25C14.226563 31.265625 14.222656 32.144531 14.125 33.28125C13.511719 34.6875 11.476563 35.511719 9.125 36.4375C5.21875 37.976563 0.363281 39.871094 0 45.9375L-0.0625 47L40.0625 47L40 45.9375C39.976563 45.515625 39.910156 45.132813 39.84375 44.75C39.824219 44.652344 39.800781 44.5625 39.78125 44.46875C39.71875 44.179688 39.675781 43.894531 39.59375 43.625C39.570313 43.546875 39.523438 43.484375 39.5 43.40625C39.402344 43.121094 39.308594 42.824219 39.1875 42.5625C39.167969 42.519531 39.144531 42.480469 39.125 42.4375C38.980469 42.136719 38.828125 41.863281 38.65625 41.59375C36.871094 38.796875 33.660156 37.527344 30.90625 36.4375C28.566406 35.511719 26.519531 34.6875 25.90625 33.28125C25.808594 32.148438 25.835938 31.292969 25.84375 30.28125L25.84375 29.78125C26.742188 28.863281 27.664063 26.925781 28 25.1875C28.703125 24.824219 29.582031 23.914063 29.84375 21.71875C29.976563 20.628906 29.65625 19.800781 29.21875 19.25C29.800781 17.269531 30.988281 12.113281 28.9375 8.8125C28.488281 8.089844 27.90625 7.535156 27.21875 7.09375C26.90625 6.894531 26.578125 6.707031 26.21875 6.5625C25.855469 6.421875 25.472656 6.300781 25.0625 6.21875C24.117188 5.027344 22.304688 4.40625 19.875 4.40625 Z M 32.90625 5.40625C31.488281 5.433594 30.257813 5.664063 29.1875 6.0625C29.75 6.550781 30.25 7.128906 30.65625 7.78125C32.8125 11.253906 32.140625 15.988281 31.375 18.96875C31.800781 19.867188 31.941406 20.890625 31.8125 21.96875C31.535156 24.292969 30.679688 25.613281 29.78125 26.375C29.371094 27.890625 28.648438 29.449219 27.84375 30.53125C27.835938 31.289063 27.828125 31.929688 27.875 32.6875C28.417969 33.300781 30.242188 34.015625 31.625 34.5625C34.6875 35.773438 38.964844 37.480469 40.9375 41.59375L50.0625 41.59375L50 40.53125C49.6875 35.320313 45.539063 33.683594 42.21875 32.375C40.375 31.648438 38.632813 30.953125 38.125 29.84375C38.050781 28.910156 38.054688 28.183594 38.0625 27.34375L38.0625 27C38.859375 26.167969 39.59375 24.527344 39.875 23.15625C40.492188 22.808594 41.214844 22.003906 41.4375 20.15625C41.546875 19.234375 41.304688 18.523438 40.9375 18.03125C41.441406 16.292969 42.390625 11.972656 40.65625 9.1875C39.917969 8 38.804688 7.269531 37.34375 6.96875C36.507813 5.953125 34.972656 5.40625 32.90625 5.40625Z"/></svg>