<?xml version="1.0" encoding="UTF-8"?>
<svg xmlns="http://www.w3.org/2000/svg" xmlns:xlink="http://www.w3.org/1999/xlink" viewBox="0 0 64 64" width="64px" height="64px">
<g id="surface36319237">
<path style=" stroke:none;fill-rule:nonzero;fill:rgb(58.431375%,64.705884%,65.098041%);fill-opacity:1;" d="M 7 12 C 4.25 12 2 14.25 2 17 L 2 57 C 2 59.75 4.25 62 7 62 L 54.5 62 C 57.25 62 59.5 59.75 59.5 57 L 59.5 12 Z M 7 12 "/>
<path style=" stroke:none;fill-rule:nonzero;fill:rgb(26.666668%,29.411766%,32.941177%);fill-opacity:1;" d="M 2 28.5 C 1.148438 28.5 0.5 27.851562 0.5 27 L 0.5 17 C 0.5 13.398438 3.398438 10.5 7 10.5 L 59.5 10.5 C 60.351562 10.5 61 11.148438 61 12 C 61 12.851562 60.351562 13.5 59.5 13.5 L 7 13.5 C 5.050781 13.5 3.5 15.050781 3.5 17 L 3.5 27 C 3.5 27.851562 2.851562 28.5 2 28.5 Z M 2 28.5 "/>
<path style=" stroke:none;fill-rule:nonzero;fill:rgb(80.000001%,80.000001%,80.000001%);fill-opacity:1;" d="M 50.5 15.5 C 50.5 8.050781 44.449219 2 37 2 C 35.25 2 33.550781 2.351562 32 2.949219 C 30.449219 2.351562 28.75 2 27 2 C 19.550781 2 13.5 8.050781 13.5 15.5 C 13.5 16.199219 13.550781 16.851562 13.648438 17.5 L 50.351562 17.5 C 50.449219 16.851562 50.5 16.199219 50.5 15.5 Z M 50.5 15.5 "/>
<path style=" stroke:none;fill-rule:nonzero;fill:rgb(26.666668%,29.411766%,32.941177%);fill-opacity:1;" d="M 50.5 17.5 C 49.648438 17.5 49 16.851562 49 16 L 49 15.5 C 49 8.898438 43.601562 3.5 37 3.5 C 35.449219 3.5 33.949219 3.800781 32.550781 4.351562 C 31.800781 4.648438 30.898438 4.300781 30.601562 3.5 C 30.300781 2.699219 30.648438 1.851562 31.449219 1.550781 C 33.199219 0.851562 35.101562 0.5 37 0.5 C 45.25 0.5 52 7.25 52 15.5 L 52 16 C 52 16.851562 51.351562 17.5 50.5 17.5 Z M 50.5 17.5 "/>
<path style=" stroke:none;fill-rule:nonzero;fill:rgb(26.666668%,29.411766%,32.941177%);fill-opacity:1;" d="M 40.5 17.5 C 39.648438 17.5 39 16.851562 39 16 L 39 15.5 C 39 8.898438 33.601562 3.5 27 3.5 C 20.398438 3.5 15 8.898438 15 15.5 L 15 16 C 15 16.851562 14.351562 17.5 13.5 17.5 C 12.648438 17.5 12 16.851562 12 16 L 12 15.5 C 12 7.25 18.75 0.5 27 0.5 C 35.25 0.5 42 7.25 42 15.5 L 42 16 C 42 16.851562 41.351562 17.5 40.5 17.5 Z M 40.5 17.5 "/>
<path style=" stroke:none;fill-rule:nonzero;fill:rgb(58.431375%,64.705884%,65.098041%);fill-opacity:1;" d="M 26.949219 22.351562 C 26.300781 22.351562 25.800781 21.898438 25.699219 21.300781 C 25.25 21.148438 24.800781 20.898438 24.449219 20.550781 C 24.101562 20.199219 23.75 19.75 23.550781 19.25 C 23.25 18.601562 23.550781 17.898438 24.199219 17.601562 C 24.800781 17.351562 25.601562 17.648438 25.851562 18.25 C 25.949219 18.449219 26.050781 18.601562 26.148438 18.699219 C 26.25 18.800781 26.398438 18.851562 26.5 18.898438 C 26.851562 19 27.351562 19 27.648438 18.898438 C 27.800781 18.851562 27.898438 18.800781 27.949219 18.699219 C 28.050781 18.601562 28.101562 18.5 28.148438 18.351562 C 28.199219 18.199219 28.25 18 28.25 17.851562 C 28.25 17.550781 28.199219 17.398438 28.148438 17.351562 C 28.101562 17.25 28 17.148438 27.851562 17.050781 C 27.699219 16.949219 27.5 16.851562 27.300781 16.800781 C 27 16.699219 26.699219 16.648438 26.398438 16.550781 C 26.050781 16.449219 25.699219 16.351562 25.398438 16.199219 C 25 16.050781 24.648438 15.851562 24.351562 15.550781 C 24 15.25 23.75 14.898438 23.550781 14.5 C 23.351562 14.101562 23.25 13.550781 23.25 12.949219 C 23.25 12.5 23.351562 12.101562 23.5 11.699219 C 23.648438 11.300781 23.898438 10.898438 24.199219 10.550781 C 24.5 10.199219 24.898438 9.949219 25.398438 9.75 C 25.5 9.699219 25.648438 9.648438 25.75 9.648438 C 25.851562 9.101562 26.351562 8.648438 27 8.648438 C 27.601562 8.648438 28.101562 9.101562 28.25 9.648438 C 28.398438 9.699219 28.5 9.75 28.648438 9.800781 C 29.101562 10 29.5 10.300781 29.851562 10.699219 C 30.148438 11.050781 30.398438 11.449219 30.5 11.949219 C 30.601562 12.25 30.550781 12.601562 30.398438 12.898438 C 30.25 13.199219 30 13.398438 29.648438 13.5 C 29.550781 13.550781 29.398438 13.550781 29.25 13.550781 C 28.699219 13.550781 28.199219 13.199219 28.050781 12.699219 C 28 12.550781 27.949219 12.449219 27.851562 12.351562 C 27.800781 12.25 27.699219 12.199219 27.550781 12.148438 C 27.25 12 26.648438 12 26.351562 12.148438 C 26.199219 12.199219 26.101562 12.300781 26 12.351562 C 25.898438 12.449219 25.851562 12.550781 25.800781 12.648438 C 25.75 12.800781 25.75 12.898438 25.75 13.050781 C 25.75 13.398438 25.800781 13.5 25.800781 13.550781 C 25.851562 13.648438 25.898438 13.699219 25.949219 13.75 C 26.050781 13.851562 26.148438 13.898438 26.300781 13.949219 C 26.550781 14.050781 26.800781 14.148438 27.050781 14.199219 C 27.398438 14.300781 27.699219 14.398438 28 14.5 C 28.449219 14.648438 28.851562 14.800781 29.199219 15.050781 C 29.648438 15.351562 30 15.699219 30.25 16.148438 C 30.550781 16.648438 30.699219 17.25 30.699219 17.949219 C 30.699219 18.398438 30.648438 18.851562 30.5 19.25 C 30.351562 19.699219 30.101562 20.148438 29.800781 20.5 C 29.449219 20.851562 29.050781 21.148438 28.601562 21.351562 C 28.449219 21.398438 28.300781 21.449219 28.148438 21.5 C 28.050781 21.898438 27.550781 22.351562 26.949219 22.351562 Z M 26.949219 22.351562 "/>
<path style=" stroke:none;fill-rule:nonzero;fill:rgb(79.215688%,85.882354%,91.764706%);fill-opacity:1;" d="M 59.5 52 L 59.5 32 L 57 32 C 51.5 32 47.25 36.5 47.25 42 C 47.25 47.5 51.5 52 57 52 Z M 59.5 52 "/>
<path style=" stroke:none;fill-rule:nonzero;fill:rgb(26.666668%,29.411766%,32.941177%);fill-opacity:1;" d="M 54.5 63.5 L 7 63.5 C 3.398438 63.5 0.5 60.601562 0.5 57 L 0.5 22 C 0.5 21.148438 1.148438 20.5 2 20.5 C 2.851562 20.5 3.5 21.148438 3.5 22 L 3.5 57 C 3.5 58.949219 5.050781 60.5 7 60.5 L 54.5 60.5 C 56.449219 60.5 58 58.949219 58 57 L 58 27 C 58 25.050781 56.449219 23.5 54.5 23.5 L 9.5 23.5 C 8.648438 23.5 8 22.851562 8 22 C 8 21.148438 8.648438 20.5 9.5 20.5 L 54.5 20.5 C 58.101562 20.5 61 23.398438 61 27 L 61 57 C 61 60.601562 58.101562 63.5 54.5 63.5 Z M 54.5 63.5 "/>
<path style=" stroke:none;fill-rule:nonzero;fill:rgb(58.431375%,64.705884%,65.098041%);fill-opacity:1;" d="M 62 47 L 57 47 C 54.25 47 52 44.75 52 42 C 52 39.25 54.25 37 57 37 L 62 37 Z M 62 47 "/>
<path style=" stroke:none;fill-rule:nonzero;fill:rgb(26.666668%,29.411766%,32.941177%);fill-opacity:1;" d="M 62 48.5 L 57 48.5 C 53.398438 48.5 50.5 45.601562 50.5 42 C 50.5 38.398438 53.398438 35.5 57 35.5 L 62 35.5 C 62.851562 35.5 63.5 36.148438 63.5 37 L 63.5 47 C 63.5 47.851562 62.851562 48.5 62 48.5 Z M 57 38.5 C 55.050781 38.5 53.5 40.050781 53.5 42 C 53.5 43.949219 55.050781 45.5 57 45.5 L 60.5 45.5 L 60.5 38.5 Z M 57 38.5 "/>
</g>
</svg>
