<svg xmlns="http://www.w3.org/2000/svg"  viewBox="0 0 128 128" width="128px" height="128px"><path fill="#fff" d="M14,24C8.5,24,4,28.5,4,34v10v10v60c0,5.5,4.5,10,10,10h95c5.5,0,10-4.5,10-10V54V24H14z"/><path fill="#444b54" d="M4,57c-1.7,0-3-1.3-3-3V34c0-7.2,5.8-13,13-13h105c1.7,0,3,1.3,3,3s-1.3,3-3,3H14c-3.9,0-7,3.1-7,7v20C7,55.7,5.7,57,4,57z"/><path fill="#f8e390" d="M101,31c0-14.9-12.1-27-27-27c-3.5,0-6.9,0.7-10,1.9C60.9,4.7,57.5,4,54,4C39.1,4,27,16.1,27,31c0,1.4,0.1,2.7,0.3,4h73.4C100.9,33.7,101,32.4,101,31z"/><path fill="#444b54" d="M101,35c-1.7,0-3-1.3-3-3v-1C98,17.8,87.2,7,74,7c-3.1,0-6.1,0.6-8.9,1.7c-1.5,0.6-3.3-0.1-3.9-1.7s0.1-3.3,1.7-3.9C66.4,1.7,70.2,1,74,1c16.5,0,30,13.5,30,30v1C104,33.7,102.7,35,101,35z"/><path fill="#444b54" d="M81,35c-1.7,0-3-1.3-3-3v-1C78,17.8,67.2,7,54,7S30,17.8,30,31v1c0,1.7-1.3,3-3,3s-3-1.3-3-3v-1C24,14.5,37.5,1,54,1s30,13.5,30,30v1C84,33.7,82.7,35,81,35z"/><path fill="#fff" d="M53.9,44.7c-1.3,0-2.3-0.9-2.5-2.1c-0.9-0.3-1.8-0.8-2.5-1.5c-0.7-0.7-1.4-1.6-1.8-2.6c-0.6-1.3,0-2.7,1.3-3.3c1.2-0.5,2.8,0.1,3.3,1.3c0.2,0.4,0.4,0.7,0.6,0.9c0.2,0.2,0.5,0.3,0.7,0.4c0.7,0.2,1.7,0.2,2.3,0c0.3-0.1,0.5-0.2,0.6-0.4c0.2-0.2,0.3-0.4,0.4-0.7c0.1-0.3,0.2-0.7,0.2-1c0-0.6-0.1-0.9-0.2-1c-0.1-0.2-0.3-0.4-0.6-0.6c-0.3-0.2-0.7-0.4-1.1-0.5c-0.6-0.2-1.2-0.3-1.8-0.5c-0.7-0.2-1.4-0.4-2-0.7c-0.8-0.3-1.5-0.7-2.1-1.3c-0.7-0.6-1.2-1.3-1.6-2.1c-0.4-0.8-0.6-1.9-0.6-3.1c0-0.9,0.2-1.7,0.5-2.5c0.3-0.8,0.8-1.6,1.4-2.3c0.6-0.7,1.4-1.2,2.4-1.6c0.2-0.1,0.5-0.2,0.7-0.2c0.2-1.1,1.2-2,2.5-2c1.2,0,2.2,0.9,2.5,2c0.3,0.1,0.5,0.2,0.8,0.3c0.9,0.4,1.7,1,2.4,1.8c0.6,0.7,1.1,1.5,1.3,2.5c0.2,0.6,0.1,1.3-0.2,1.9c-0.3,0.6-0.8,1-1.5,1.2c-0.2,0.1-0.5,0.1-0.8,0.1c-1.1,0-2.1-0.7-2.4-1.7c-0.1-0.3-0.2-0.5-0.4-0.7c-0.1-0.2-0.3-0.3-0.6-0.4c-0.6-0.3-1.8-0.3-2.4,0c-0.3,0.1-0.5,0.3-0.7,0.4c-0.2,0.2-0.3,0.4-0.4,0.6c-0.1,0.3-0.1,0.5-0.1,0.8c0,0.7,0.1,0.9,0.1,1c0.1,0.2,0.2,0.3,0.3,0.4c0.2,0.2,0.4,0.3,0.7,0.4c0.5,0.2,1,0.4,1.5,0.5c0.7,0.2,1.3,0.4,1.9,0.6c0.9,0.3,1.7,0.6,2.4,1.1c0.9,0.6,1.6,1.3,2.1,2.2c0.6,1,0.9,2.2,0.9,3.6c0,0.9-0.1,1.8-0.4,2.6c-0.3,0.9-0.8,1.8-1.4,2.5c-0.7,0.7-1.5,1.3-2.4,1.7c-0.3,0.1-0.6,0.2-0.9,0.3C56.1,43.8,55.1,44.7,53.9,44.7z"/><g><path fill="#cadbea" d="M119,104V64h-5c-11,0-19.5,9-19.5,20s8.5,20,19.5,20H119z"/><path fill="#444b54" d="M109,127H14c-7.2,0-13-5.8-13-13V44c0-1.7,1.3-3,3-3s3,1.3,3,3v70c0,3.9,3.1,7,7,7h95c3.9,0,7-3.1,7-7V54c0-3.9-3.1-7-7-7H19c-1.7,0-3-1.3-3-3s1.3-3,3-3h90c7.2,0,13,5.8,13,13v60C122,121.2,116.2,127,109,127z"/><path fill="#fff" d="M124,94h-10c-5.5,0-10-4.5-10-10v0c0-5.5,4.5-10,10-10h10V94z"/><path fill="#444b54" d="M124,97h-10c-7.2,0-13-5.8-13-13s5.8-13,13-13h10c1.7,0,3,1.3,3,3v20C127,95.7,125.7,97,124,97z M114,77c-3.9,0-7,3.1-7,7s3.1,7,7,7h7V77H114z"/></g></svg>