<svg fill="#000000" xmlns="http://www.w3.org/2000/svg"  viewBox="0 0 26 26" width="64px" height="64px"><path d="M 4 0 C 1.796875 0 0 1.796875 0 4 L 0 22 C 0 24.203125 1.796875 26 4 26 L 17 26 C 18.0625 26 19.539063 24.464844 21.25 22.71875 C 21.488281 22.476563 21.722656 22.246094 21.96875 22 C 22.214844 21.753906 22.476563 21.488281 22.71875 21.25 C 24.464844 19.539063 26 18.0625 26 17 L 26 4 C 26 1.796875 24.203125 0 22 0 Z M 4 2 L 22 2 C 23.105469 2 24 2.894531 24 4 L 24 17 C 24 17.996094 22.996094 18 22 18 L 19 18 C 18.449219 18 18 18.449219 18 19 L 18 22.0625 C 18 22.949219 18.003906 23.816406 17.28125 24 L 4 24 C 2.894531 24 2 23.105469 2 22 L 2 4 C 2 2.894531 2.894531 2 4 2 Z M 6.8125 8 C 6.261719 8.050781 5.855469 8.542969 5.90625 9.09375 C 5.957031 9.644531 6.449219 10.050781 7 10 L 19 10 C 19.359375 10.003906 19.695313 9.816406 19.878906 9.503906 C 20.058594 9.191406 20.058594 8.808594 19.878906 8.496094 C 19.695313 8.183594 19.359375 7.996094 19 8 L 7 8 C 6.96875 8 6.9375 8 6.90625 8 C 6.875 8 6.84375 8 6.8125 8 Z M 6.8125 13 C 6.261719 13.050781 5.855469 13.542969 5.90625 14.09375 C 5.957031 14.644531 6.449219 15.050781 7 15 L 17 15 C 17.359375 15.003906 17.695313 14.816406 17.878906 14.503906 C 18.058594 14.191406 18.058594 13.808594 17.878906 13.496094 C 17.695313 13.183594 17.359375 12.996094 17 13 L 7 13 C 6.96875 13 6.9375 13 6.90625 13 C 6.875 13 6.84375 13 6.8125 13 Z"/></svg>