<?xml version="1.0" encoding="UTF-8"?>
<svg xmlns="http://www.w3.org/2000/svg" xmlns:xlink="http://www.w3.org/1999/xlink" viewBox="0 0 64 64" width="64px" height="64px">
<g id="surface60750227">
<path style=" stroke:none;fill-rule:nonzero;fill:rgb(100%,100%,100%);fill-opacity:1;" d="M 52.390625 3.300781 C 51.972656 3.300781 51.636719 3.640625 51.636719 4.058594 C 51.636719 4.476562 51.972656 4.8125 52.390625 4.8125 C 52.808594 4.8125 53.144531 4.476562 53.144531 4.058594 C 53.144531 3.640625 52.808594 3.300781 52.390625 3.300781 Z M 52.390625 3.300781 "/>
<path style=" stroke:none;fill-rule:nonzero;fill:rgb(100%,100%,100%);fill-opacity:1;" d="M 32 4.058594 C 16.566406 4.058594 4.058594 16.566406 4.058594 32 C 4.058594 47.433594 16.566406 59.941406 32 59.941406 C 47.433594 59.941406 59.941406 47.433594 59.941406 32 C 59.941406 16.566406 47.433594 4.058594 32 4.058594 Z M 32 4.058594 "/>
<path style=" stroke:none;fill-rule:nonzero;fill:rgb(100%,100%,100%);fill-opacity:1;" d="M 56.921875 2.546875 C 55.253906 2.546875 53.902344 3.898438 53.902344 5.566406 C 53.902344 7.238281 55.253906 8.589844 56.921875 8.589844 C 58.589844 8.589844 59.941406 7.238281 59.941406 5.566406 C 59.941406 3.898438 58.589844 2.546875 56.921875 2.546875 Z M 56.921875 2.546875 "/>
<path style=" stroke:none;fill-rule:nonzero;fill:rgb(100%,100%,100%);fill-opacity:1;" d="M 59.941406 10.855469 C 59.109375 10.855469 58.433594 11.53125 58.433594 12.363281 C 58.433594 13.199219 59.109375 13.875 59.941406 13.875 C 60.777344 13.875 61.453125 13.199219 61.453125 12.363281 C 61.453125 11.53125 60.777344 10.855469 59.941406 10.855469 Z M 59.941406 10.855469 "/>
<path style=" stroke:none;fill-rule:nonzero;fill:rgb(100%,100%,100%);fill-opacity:1;" d="M 55.410156 50.125 C 54.578125 50.125 53.902344 50.800781 53.902344 51.636719 C 53.902344 52.46875 54.578125 53.144531 55.410156 53.144531 C 56.246094 53.144531 56.921875 52.46875 56.921875 51.636719 C 56.921875 50.800781 56.246094 50.125 55.410156 50.125 Z M 5.566406 38.796875 C 3.898438 38.796875 2.546875 40.148438 2.546875 41.816406 C 2.546875 43.484375 3.898438 44.839844 5.566406 44.839844 C 7.238281 44.839844 8.589844 43.484375 8.589844 41.816406 C 8.589844 40.148438 7.238281 38.796875 5.566406 38.796875 Z M 5.566406 38.796875 "/>
<path style=" stroke:none;fill-rule:nonzero;fill:rgb(100%,100%,100%);fill-opacity:1;" d="M 13.121094 58.433594 C 12.285156 58.433594 11.609375 59.109375 11.609375 59.941406 C 11.609375 60.777344 12.285156 61.453125 13.121094 61.453125 C 13.953125 61.453125 14.628906 60.777344 14.628906 59.941406 C 14.628906 59.109375 13.953125 58.433594 13.121094 58.433594 Z M 13.121094 58.433594 "/>
<path style=" stroke:none;fill-rule:nonzero;fill:rgb(100%,100%,100%);fill-opacity:1;" d="M 8.210938 31.246094 C 7.167969 31.246094 6.324219 32.089844 6.324219 33.132812 C 6.324219 34.175781 7.167969 35.019531 8.210938 35.019531 C 9.253906 35.019531 10.097656 34.175781 10.097656 33.132812 C 10.097656 32.089844 9.253906 31.246094 8.210938 31.246094 Z M 54.277344 18.40625 C 53.652344 18.40625 53.144531 18.914062 53.144531 19.539062 C 53.144531 20.164062 53.652344 20.671875 54.277344 20.671875 C 54.902344 20.671875 55.410156 20.164062 55.410156 19.539062 C 55.410156 18.914062 54.902344 18.40625 54.277344 18.40625 Z M 54.277344 18.40625 "/>
<path style=" stroke:none;fill-rule:nonzero;fill:rgb(99.607843%,99.215686%,93.725491%);fill-opacity:1;" d="M 17.398438 48.839844 C 16.164062 48.839844 15.160156 47.835938 15.160156 46.601562 L 15.160156 17.398438 C 15.160156 16.164062 16.164062 15.160156 17.398438 15.160156 L 46.601562 15.160156 C 47.835938 15.160156 48.839844 16.164062 48.839844 17.398438 L 48.839844 46.601562 C 48.839844 47.835938 47.835938 48.839844 46.601562 48.839844 Z M 17.398438 48.839844 "/>
<path style=" stroke:none;fill-rule:nonzero;fill:rgb(27.843139%,16.862746%,16.078432%);fill-opacity:1;" d="M 46.601562 15.6875 C 47.542969 15.6875 48.3125 16.457031 48.3125 17.398438 L 48.3125 46.601562 C 48.3125 47.546875 47.542969 48.3125 46.601562 48.3125 L 17.398438 48.3125 C 16.457031 48.3125 15.6875 47.546875 15.6875 46.601562 L 15.6875 17.398438 C 15.6875 16.457031 16.457031 15.6875 17.398438 15.6875 L 46.601562 15.6875 M 46.601562 14.628906 L 17.398438 14.628906 C 15.875 14.628906 14.628906 15.875 14.628906 17.398438 L 14.628906 46.601562 C 14.628906 48.125 15.875 49.371094 17.398438 49.371094 L 46.601562 49.371094 C 48.125 49.371094 49.371094 48.125 49.371094 46.601562 L 49.371094 17.398438 C 49.371094 15.875 48.125 14.628906 46.601562 14.628906 Z M 46.601562 14.628906 "/>
<path style=" stroke:none;fill-rule:nonzero;fill:rgb(27.843139%,16.862746%,16.078432%);fill-opacity:1;" d="M 18.027344 29.734375 C 17.820312 29.734375 17.652344 29.566406 17.652344 29.355469 L 17.652344 19.351562 C 17.652344 18.414062 18.414062 17.652344 19.351562 17.652344 L 33.132812 17.652344 C 33.339844 17.652344 33.511719 17.820312 33.511719 18.027344 C 33.511719 18.238281 33.339844 18.40625 33.132812 18.40625 L 19.351562 18.40625 C 18.828125 18.40625 18.40625 18.828125 18.40625 19.351562 L 18.40625 29.355469 C 18.40625 29.566406 18.238281 29.734375 18.027344 29.734375 Z M 18.027344 37.285156 C 17.820312 37.285156 17.652344 37.117188 17.652344 36.910156 L 17.652344 31.621094 C 17.652344 31.414062 17.820312 31.246094 18.027344 31.246094 C 18.238281 31.246094 18.40625 31.414062 18.40625 31.621094 L 18.40625 36.910156 C 18.40625 37.117188 18.238281 37.285156 18.027344 37.285156 Z M 37.664062 46.347656 L 19.351562 46.347656 C 18.414062 46.347656 17.652344 45.585938 17.652344 44.648438 L 17.652344 39.929688 C 17.652344 39.722656 17.820312 39.550781 18.027344 39.550781 C 18.238281 39.550781 18.40625 39.722656 18.40625 39.929688 L 18.40625 44.648438 C 18.40625 45.171875 18.828125 45.59375 19.351562 45.59375 L 37.664062 45.59375 C 37.871094 45.59375 38.042969 45.761719 38.042969 45.972656 C 38.042969 46.179688 37.871094 46.347656 37.664062 46.347656 Z M 45.972656 44.839844 C 45.761719 44.839844 45.59375 44.667969 45.59375 44.460938 L 45.59375 30.113281 C 45.59375 29.902344 45.761719 29.734375 45.972656 29.734375 C 46.179688 29.734375 46.347656 29.902344 46.347656 30.113281 L 46.347656 44.460938 C 46.347656 44.667969 46.179688 44.839844 45.972656 44.839844 Z M 45.972656 44.839844 "/>
<path style=" stroke:none;fill-rule:nonzero;fill:rgb(27.843139%,16.862746%,16.078432%);fill-opacity:1;" d="M 45.972656 28.222656 C 45.761719 28.222656 45.59375 28.054688 45.59375 27.847656 L 45.59375 24.824219 C 45.59375 24.617188 45.761719 24.449219 45.972656 24.449219 C 46.179688 24.449219 46.347656 24.617188 46.347656 24.824219 L 46.347656 27.847656 C 46.347656 28.054688 46.179688 28.222656 45.972656 28.222656 Z M 45.972656 28.222656 "/>
<path style=" stroke:none;fill-rule:nonzero;fill:rgb(27.843139%,16.862746%,16.078432%);fill-opacity:1;" d="M 45.972656 22.9375 C 45.761719 22.9375 45.59375 22.769531 45.59375 22.558594 L 45.59375 19.539062 C 45.59375 19.332031 45.761719 19.160156 45.972656 19.160156 C 46.179688 19.160156 46.347656 19.332031 46.347656 19.539062 L 46.347656 22.558594 C 46.347656 22.769531 46.179688 22.9375 45.972656 22.9375 Z M 45.972656 22.9375 "/>
<path style=" stroke:none;fill-rule:nonzero;fill:rgb(63.137257%,82.745099%,63.529414%);fill-opacity:1;" d="M 21.050781 21.050781 L 42.949219 21.050781 L 42.949219 24.824219 L 21.050781 24.824219 Z M 21.050781 21.050781 "/>
<path style=" stroke:none;fill-rule:nonzero;fill:rgb(27.843139%,16.862746%,16.078432%);fill-opacity:1;" d="M 42.949219 25.203125 L 21.050781 25.203125 C 20.839844 25.203125 20.671875 25.035156 20.671875 24.824219 L 20.671875 21.050781 C 20.671875 20.839844 20.839844 20.671875 21.050781 20.671875 L 42.949219 20.671875 C 43.160156 20.671875 43.328125 20.839844 43.328125 21.050781 L 43.328125 24.824219 C 43.328125 25.035156 43.160156 25.203125 42.949219 25.203125 Z M 21.425781 24.449219 L 42.574219 24.449219 L 42.574219 21.425781 L 21.425781 21.425781 Z M 21.425781 24.449219 "/>
<path style=" stroke:none;fill-rule:nonzero;fill:rgb(63.137257%,82.745099%,63.529414%);fill-opacity:1;" d="M 21.050781 27.089844 L 37.664062 27.089844 L 37.664062 30.867188 L 21.050781 30.867188 Z M 21.050781 27.089844 "/>
<path style=" stroke:none;fill-rule:nonzero;fill:rgb(27.843139%,16.862746%,16.078432%);fill-opacity:1;" d="M 37.664062 31.246094 L 21.050781 31.246094 C 20.839844 31.246094 20.671875 31.074219 20.671875 30.867188 L 20.671875 27.089844 C 20.671875 26.882812 20.839844 26.714844 21.050781 26.714844 L 37.664062 26.714844 C 37.871094 26.714844 38.042969 26.882812 38.042969 27.089844 L 38.042969 30.867188 C 38.042969 31.074219 37.871094 31.246094 37.664062 31.246094 Z M 21.425781 30.488281 L 37.285156 30.488281 L 37.285156 27.46875 L 21.425781 27.46875 Z M 21.425781 30.488281 "/>
<path style=" stroke:none;fill-rule:nonzero;fill:rgb(47.058824%,63.529414%,82.352942%);fill-opacity:1;" d="M 21.050781 33.886719 L 29.355469 33.886719 L 29.355469 42.195312 L 21.050781 42.195312 Z M 21.050781 33.886719 "/>
<path style=" stroke:none;fill-rule:nonzero;fill:rgb(27.843139%,16.862746%,16.078432%);fill-opacity:1;" d="M 29.355469 42.574219 L 21.050781 42.574219 C 20.839844 42.574219 20.671875 42.402344 20.671875 42.195312 L 20.671875 33.886719 C 20.671875 33.679688 20.839844 33.511719 21.050781 33.511719 L 29.355469 33.511719 C 29.566406 33.511719 29.734375 33.679688 29.734375 33.886719 L 29.734375 42.195312 C 29.734375 42.402344 29.566406 42.574219 29.355469 42.574219 Z M 21.425781 41.816406 L 28.980469 41.816406 L 28.980469 34.265625 L 21.425781 34.265625 Z M 21.425781 41.816406 "/>
<path style=" stroke:none;fill-rule:nonzero;fill:rgb(27.843139%,16.862746%,16.078432%);fill-opacity:1;" d="M 36.152344 36.53125 L 31.621094 36.53125 C 31.414062 36.53125 31.246094 36.363281 31.246094 36.152344 C 31.246094 35.945312 31.414062 35.777344 31.621094 35.777344 L 36.152344 35.777344 C 36.363281 35.777344 36.53125 35.945312 36.53125 36.152344 C 36.53125 36.363281 36.363281 36.53125 36.152344 36.53125 Z M 36.152344 36.53125 "/>
<path style=" stroke:none;fill-rule:nonzero;fill:rgb(27.843139%,16.862746%,16.078432%);fill-opacity:1;" d="M 39.929688 38.796875 L 31.621094 38.796875 C 31.414062 38.796875 31.246094 38.628906 31.246094 38.417969 C 31.246094 38.210938 31.414062 38.042969 31.621094 38.042969 L 39.929688 38.042969 C 40.136719 38.042969 40.308594 38.210938 40.308594 38.417969 C 40.308594 38.628906 40.136719 38.796875 39.929688 38.796875 Z M 39.929688 38.796875 "/>
<path style=" stroke:none;fill-rule:nonzero;fill:rgb(27.843139%,16.862746%,16.078432%);fill-opacity:1;" d="M 38.417969 41.0625 L 31.621094 41.0625 C 31.414062 41.0625 31.246094 40.894531 31.246094 40.683594 C 31.246094 40.476562 31.414062 40.308594 31.621094 40.308594 L 38.417969 40.308594 C 38.628906 40.308594 38.796875 40.476562 38.796875 40.683594 C 38.796875 40.894531 38.628906 41.0625 38.417969 41.0625 Z M 38.417969 41.0625 "/>
<path style=" stroke:none;fill-rule:nonzero;fill:rgb(27.843139%,16.862746%,16.078432%);fill-opacity:1;" d="M 42.949219 36.53125 L 38.417969 36.53125 C 38.210938 36.53125 38.042969 36.363281 38.042969 36.152344 C 38.042969 35.945312 38.210938 35.777344 38.417969 35.777344 L 42.949219 35.777344 C 43.160156 35.777344 43.328125 35.945312 43.328125 36.152344 C 43.328125 36.363281 43.160156 36.53125 42.949219 36.53125 Z M 42.949219 36.53125 "/>
</g>
</svg>
