<svg xmlns="http://www.w3.org/2000/svg"  viewBox="0 0 100 100" width="100px" height="100px"><path fill="#c7ede6" d="M88.494,55.998c0.299-0.614,0.563-1.259,0.792-1.935c2.622-7.739-1.343-17.008-9.693-19.245c-0.903-11.338-8.87-19.115-17.867-20.442C51.428,12.857,41.993,19.4,38.854,29.798c-3.784-1.34-7.471-1.177-10.945,0.853c-1.576,0.729-3.018,1.805-4.312,3.22c-1.9,2.077-3.134,4.7-3.637,7.465c-0.745,0.117-1.477,0.235-2.167,0.482c-4.023,1.443-6.562,4.413-7.258,8.886c-0.434,2.785,0.441,5.564,0.929,6.687c1.927,4.436,6.396,6.952,10.936,6.286c0.226-0.033,0.554,0.069,0.749,0.232c0.24,7.091,3.683,13.362,8.848,16.944c8.287,5.748,18.949,3.977,25.675-3.905c2.882,2.948,6.312,4.38,10.342,3.86c4.006-0.517,7.117-2.728,9.387-6.322c1.048,0.282,2.043,0.689,3.071,0.801c4.025,0.44,7.294-1.161,9.692-4.78c0.918-1.385,1.786-3.181,1.786-6.328C91.95,60.934,90.662,57.979,88.494,55.998z"/><path fill="#fdfcef" d="M76.648,49.396c0,0,11.643,0,11.714,0c2.689,0,4.868-2.18,4.868-4.869c0-2.346-1.659-4.303-3.868-4.765c0.025-0.205,0.043-0.413,0.043-0.625c0-2.785-2.257-5.042-5.042-5.042c-1.644,0-3.1,0.791-4.02,2.008c-0.235-3.1-3.004-5.491-6.244-5.095c-2.369,0.29-4.328,2.121-4.764,4.467c-0.14,0.752-0.125,1.483,0.014,2.168c-0.635-0.684-1.539-1.115-2.546-1.115c-1.843,0-3.347,1.435-3.466,3.248c-0.837-0.185-1.747-0.173-2.706,0.187c-1.832,0.688-3.137,2.413-3.214,4.369c-0.108,2.778,2.111,5.064,4.864,5.064c0.209,0,0.944,0,1.114,0h10.109"/><path fill="#472b29" d="M88.362,49.896H76.648c-0.276,0-0.5-0.224-0.5-0.5s0.224-0.5,0.5-0.5h11.714c2.409,0,4.369-1.96,4.369-4.369c0-2.057-1.459-3.855-3.47-4.275c-0.255-0.053-0.426-0.292-0.394-0.551c0.023-0.185,0.039-0.373,0.039-0.564c0-2.505-2.038-4.542-4.542-4.542c-1.432,0-2.752,0.66-3.622,1.81c-0.125,0.166-0.337,0.236-0.54,0.178c-0.199-0.059-0.342-0.234-0.357-0.441c-0.104-1.371-0.775-2.659-1.842-3.533c-1.077-0.883-2.439-1.273-3.843-1.104c-2.156,0.264-3.938,1.935-4.333,4.062c-0.124,0.666-0.12,1.331,0.012,1.977c0.045,0.22-0.062,0.442-0.261,0.545c-0.199,0.102-0.443,0.06-0.595-0.104c-0.572-0.616-1.346-0.955-2.18-0.955c-1.561,0-2.864,1.221-2.967,2.78c-0.01,0.146-0.083,0.28-0.199,0.367c-0.117,0.087-0.267,0.118-0.408,0.088c-0.837-0.185-1.63-0.131-2.422,0.167c-1.661,0.624-2.823,2.199-2.89,3.92c-0.047,1.201,0.385,2.339,1.216,3.203c0.832,0.865,1.95,1.341,3.149,1.341h11.223c0.276,0,0.5,0.224,0.5,0.5s-0.224,0.5-0.5,0.5H62.282c-1.474,0-2.848-0.585-3.87-1.648c-1.021-1.062-1.552-2.459-1.494-3.935c0.083-2.118,1.504-4.054,3.537-4.818c0.796-0.298,1.62-0.397,2.457-0.297c0.376-1.815,1.991-3.168,3.891-3.168c0.681,0,1.347,0.178,1.934,0.506c0-0.382,0.035-0.767,0.106-1.151c0.474-2.552,2.61-4.556,5.195-4.872c1.672-0.207,3.307,0.265,4.598,1.323c0.999,0.819,1.708,1.941,2.029,3.178c1.008-0.911,2.31-1.418,3.697-1.418c3.056,0,5.542,2.486,5.542,5.542c0,0.083-0.002,0.165-0.007,0.246c2.245,0.67,3.832,2.767,3.832,5.144C93.73,47.488,91.322,49.896,88.362,49.896z"/><path fill="#fdfcef" d="M73.827,38.672c-1.801-0.118-3.351,1.126-3.462,2.778c-0.014,0.205-0.005,0.407,0.025,0.604c-0.347-0.392-0.862-0.659-1.452-0.697c-1.08-0.071-2.013,0.643-2.149,1.613c-0.197-0.054-0.401-0.09-0.614-0.104c-1.576-0.103-2.932,0.985-3.029,2.431"/><path fill="#472b29" d="M63.146,45.546c-0.006,0-0.012,0-0.017,0c-0.138-0.009-0.242-0.128-0.233-0.266c0.106-1.581,1.564-2.777,3.295-2.664c0.134,0.009,0.27,0.026,0.406,0.052c0.273-0.963,1.259-1.625,2.356-1.562c0.423,0.028,0.819,0.159,1.158,0.38c0-0.018,0.002-0.036,0.003-0.054c0.12-1.787,1.785-3.126,3.728-3.01c0.138,0.009,0.242,0.128,0.233,0.266c-0.009,0.137-0.118,0.243-0.266,0.233c-1.658-0.112-3.095,1.033-3.196,2.545c-0.013,0.183-0.005,0.368,0.023,0.549c0.017,0.109-0.041,0.217-0.141,0.264c-0.099,0.048-0.219,0.023-0.293-0.06c-0.322-0.363-0.777-0.581-1.281-0.614c-0.934-0.063-1.768,0.552-1.885,1.398c-0.01,0.071-0.05,0.135-0.11,0.174c-0.06,0.039-0.135,0.051-0.204,0.032c-0.188-0.052-0.378-0.084-0.564-0.096c-1.419-0.099-2.676,0.892-2.764,2.198C63.387,45.445,63.277,45.546,63.146,45.546z"/><path fill="#fdfcef" d="M90.333,40.334c-1.692-0.798-3.649-0.233-4.371,1.262c-0.09,0.186-0.156,0.377-0.2,0.571"/><path fill="#472b29" d="M85.762,42.416c-0.018,0-0.037-0.002-0.056-0.006c-0.135-0.031-0.219-0.165-0.188-0.299c0.049-0.217,0.123-0.427,0.219-0.625c0.78-1.615,2.891-2.233,4.702-1.379c0.125,0.059,0.179,0.208,0.12,0.333c-0.059,0.126-0.209,0.178-0.333,0.12c-1.566-0.738-3.378-0.225-4.039,1.145c-0.08,0.164-0.141,0.338-0.182,0.518C85.979,42.338,85.876,42.416,85.762,42.416z"/><path fill="#fff" d="M18.448 48.068H8.458c-.276 0-.5-.224-.5-.5s.224-.5.5-.5h9.989c.276 0 .5.224.5.5S18.724 48.068 18.448 48.068zM21.317 48.068h-1.44c-.276 0-.5-.224-.5-.5s.224-.5.5-.5h1.44c.276 0 .5.224.5.5S21.593 48.068 21.317 48.068zM25.355 48.068h-2.536c-.276 0-.5-.224-.5-.5s.224-.5.5-.5h2.536c.276 0 .5.224.5.5S25.631 48.068 25.355 48.068zM25.355 49.926h-9.577c-.276 0-.5-.224-.5-.5s.224-.5.5-.5h9.577c.276 0 .5.224.5.5S25.631 49.926 25.355 49.926zM14.054 49.926h-.578c-.276 0-.5-.224-.5-.5s.224-.5.5-.5h.578c.276 0 .5.224.5.5S14.33 49.926 14.054 49.926zM11.687 49.926h-1.45c-.276 0-.5-.224-.5-.5s.224-.5.5-.5h1.45c.276 0 .5.224.5.5S11.963 49.926 11.687 49.926zM20.785 46.211h-5.007c-.276 0-.5-.224-.5-.5s.224-.5.5-.5h5.007c.276 0 .5.224.5.5S21.061 46.211 20.785 46.211zM20.785 44.354h-1.252c-.276 0-.5-.224-.5-.5s.224-.5.5-.5h1.252c.276 0 .5.224.5.5S21.061 44.354 20.785 44.354zM17.529 51.783h-1.751c-.276 0-.5-.224-.5-.5s.224-.5.5-.5h1.751c.276 0 .5.224.5.5S17.806 51.783 17.529 51.783zM71.407 21.899h-9.989c-.276 0-.5-.224-.5-.5s.224-.5.5-.5h9.989c.276 0 .5.224.5.5S71.684 21.899 71.407 21.899zM74.277 21.899h-1.44c-.276 0-.5-.224-.5-.5s.224-.5.5-.5h1.44c.276 0 .5.224.5.5S74.553 21.899 74.277 21.899zM78.314 21.899h-2.535c-.276 0-.5-.224-.5-.5s.224-.5.5-.5h2.535c.276 0 .5.224.5.5S78.591 21.899 78.314 21.899zM76.297 18.184H66.72c-.276 0-.5-.224-.5-.5s.224-.5.5-.5h9.577c.276 0 .5.224.5.5S76.574 18.184 76.297 18.184zM64.996 18.184h-.578c-.276 0-.5-.224-.5-.5s.224-.5.5-.5h.578c.276 0 .5.224.5.5S65.272 18.184 64.996 18.184zM62.629 18.184h-1.451c-.276 0-.5-.224-.5-.5s.224-.5.5-.5h1.451c.276 0 .5.224.5.5S62.905 18.184 62.629 18.184zM73.745 20.042h-5.007c-.276 0-.5-.224-.5-.5s.224-.5.5-.5h5.007c.276 0 .5.224.5.5S74.021 20.042 73.745 20.042z"/><path fill="#fff" d="M73.745 18.184h-1.252c-.276 0-.5-.224-.5-.5s.224-.5.5-.5h1.252c.276 0 .5.224.5.5S74.021 18.184 73.745 18.184zM67.289 20.042h-1.751c-.276 0-.5-.224-.5-.5s.224-.5.5-.5h1.751c.276 0 .5.224.5.5S67.565 20.042 67.289 20.042z"/><path fill="#ee3e54" d="M66.667,72.897H37.132c-3.766,0-6.847-3.081-6.847-6.847V36.515c0-3.766,3.081-6.847,6.847-6.847h29.535c3.766,0,6.847,3.081,6.847,6.847V66.05C73.514,69.816,70.433,72.897,66.667,72.897z"/><path fill="#472b29" d="M66.667,73.597H37.132c-4.162,0-7.547-3.386-7.547-7.547V36.515c0-4.162,3.386-7.547,7.547-7.547h29.535c4.162,0,7.547,3.386,7.547,7.547V66.05C74.214,70.212,70.829,73.597,66.667,73.597z M37.132,30.368c-3.39,0-6.147,2.757-6.147,6.147V66.05c0,3.39,2.757,6.147,6.147,6.147h29.535c3.39,0,6.147-2.757,6.147-6.147V36.515c0-3.39-2.757-6.147-6.147-6.147H37.132z"/><path fill="#fdfcee" d="M64.878,69.81H38.921c-3.052,0-5.549-2.497-5.549-5.549V38.305c0-3.052,2.497-5.549,5.549-5.549h25.956c3.052,0,5.549,2.497,5.549,5.549v25.956C70.426,67.313,67.929,69.81,64.878,69.81z"/><path fill="#472b29" d="M64.795 70.159H39.003c-3.298 0-5.981-2.683-5.981-5.981V38.387c0-3.298 2.683-5.981 5.981-5.981h24.561c.193 0 .35.157.35.35s-.157.35-.35.35H39.003c-2.912 0-5.281 2.369-5.281 5.281v25.792c0 2.912 2.369 5.281 5.281 5.281h25.792c2.912 0 5.281-2.369 5.281-5.281V49.91c0-.193.157-.35.35-.35s.35.157.35.35v14.268C70.776 67.476 68.093 70.159 64.795 70.159zM70.426 48.202c-.193 0-.35-.157-.35-.35v-2.745c0-.193.157-.35.35-.35s.35.157.35.35v2.745C70.776 48.045 70.62 48.202 70.426 48.202zM70.426 44.085c-.193 0-.35-.157-.35-.35v-1.373c0-.193.157-.35.35-.35s.35.157.35.35v1.373C70.776 43.928 70.62 44.085 70.426 44.085z"/><g><path fill="#ee3e54" d="M60.275 42.403L44.826 42.403 42.452 38.466 62.577 38.466z"/><path fill="#472b29" d="M60.275,42.778H44.826c-0.131,0-0.253-0.069-0.321-0.181l-2.374-3.937c-0.07-0.116-0.072-0.26-0.005-0.378c0.066-0.118,0.191-0.19,0.327-0.19h20.125c0.134,0,0.258,0.072,0.325,0.188c0.067,0.116,0.066,0.26-0.001,0.376l-2.302,3.937C60.531,42.707,60.408,42.778,60.275,42.778z M45.038,42.028H60.06l1.863-3.187H43.116L45.038,42.028z"/><path fill="#f94e6b" d="M47.681 52.077L42.007 38.466 48.912 38.466 53.658 50.08"/><path fill="#472b29" d="M47.681,52.452c-0.146,0-0.286-0.087-0.346-0.231L41.661,38.61c-0.048-0.116-0.035-0.248,0.034-0.352s0.187-0.167,0.312-0.167h6.905c0.152,0,0.29,0.092,0.347,0.233l4.747,11.614c0.078,0.192-0.014,0.411-0.205,0.489c-0.192,0.078-0.41-0.013-0.489-0.205L48.66,38.841h-6.09l5.458,13.092c0.08,0.191-0.011,0.411-0.202,0.49C47.778,52.443,47.729,52.452,47.681,52.452z"/><path fill="#ee3e54" d="M56.829 52.253L62.577 38.466 55.672 38.466 50.018 52.077"/><path fill="#472b29" d="M56.83,52.628c-0.048,0-0.097-0.009-0.144-0.029c-0.191-0.08-0.282-0.299-0.202-0.49l5.531-13.268h-6.092l-5.558,13.38c-0.079,0.191-0.296,0.282-0.49,0.202c-0.191-0.079-0.282-0.299-0.202-0.49l5.654-13.611c0.058-0.14,0.195-0.231,0.346-0.231h6.905c0.125,0,0.243,0.062,0.312,0.167s0.083,0.236,0.034,0.352l-5.747,13.787C57.116,52.541,56.976,52.628,56.83,52.628z"/><path fill="#472b29" d="M57.202 47.565c-.019 0-.039-.003-.057-.011-.077-.032-.113-.119-.082-.196l3.58-8.696c.031-.077.119-.114.196-.082.077.032.113.119.082.196l-3.58 8.696C57.316 47.531 57.261 47.565 57.202 47.565zM56.779 48.593c-.019 0-.039-.003-.057-.011-.077-.032-.113-.119-.082-.196l.177-.43c.031-.077.118-.114.196-.082.077.032.113.119.082.196l-.177.43C56.894 48.558 56.838 48.593 56.779 48.593zM47.863 49.029c-.06 0-.116-.036-.14-.095l-3.991-10.099c-.03-.077.007-.164.084-.195.076-.029.164.007.195.084l3.991 10.099c.03.077-.007.164-.084.195C47.9 49.025 47.882 49.029 47.863 49.029zM55.597 51.388c-.021 0-.041-.004-.061-.013-.076-.034-.11-.123-.076-.198l.965-2.171c.034-.076.123-.11.198-.076s.11.123.076.198l-.965 2.171C55.709 51.355 55.655 51.388 55.597 51.388z"/></g><g><path fill="#472b29" d="M51.212 42.528c-.05 0-.097-.03-.116-.079l-1.548-3.937c-.025-.064.006-.137.07-.162.065-.025.137.006.162.07l1.548 3.937c.025.064-.006.137-.07.162C51.243 42.525 51.227 42.528 51.212 42.528zM52.033 42.528c-.05 0-.097-.03-.116-.079l-1.548-3.937c-.025-.064.006-.137.07-.162.065-.025.138.006.162.07l1.548 3.937c.025.064-.006.137-.07.162C52.063 42.525 52.048 42.528 52.033 42.528zM52.854 42.528c-.05 0-.097-.03-.116-.079l-1.548-3.937c-.025-.064.006-.137.07-.162.065-.025.137.006.162.07l1.548 3.937c.025.064-.006.137-.07.162C52.884 42.525 52.869 42.528 52.854 42.528zM53.674 42.528c-.05 0-.097-.03-.116-.079l-1.548-3.937c-.025-.064.006-.137.07-.162.064-.025.137.006.162.07l1.548 3.937c.025.064-.006.137-.07.162C53.705 42.525 53.689 42.528 53.674 42.528zM54.23 41.855c-.05 0-.097-.03-.116-.079l-1.284-3.264c-.025-.064.006-.137.07-.162.065-.025.137.006.162.07l1.284 3.264c.025.064-.006.137-.07.162C54.261 41.852 54.246 41.855 54.23 41.855zM54.653 40.844c-.05 0-.097-.03-.116-.079l-.886-2.253c-.025-.064.006-.137.07-.162.065-.025.138.006.162.07l.886 2.253c.025.064-.006.137-.07.162C54.684 40.841 54.668 40.844 54.653 40.844zM55.094 39.877c-.05 0-.097-.03-.116-.079l-.506-1.286c-.025-.064.006-.137.07-.162.065-.025.137.006.162.07l.506 1.286c.025.064-.006.137-.07.162C55.125 39.874 55.109 39.877 55.094 39.877z"/></g><g><path fill="#fdfcef" d="M40.633,75.653c1.876,0,3.502,0,3.526,0c2.101,0,3.805-1.667,3.805-3.724c0-1.794-1.297-3.292-3.023-3.645c0.02-0.157,0.033-0.316,0.033-0.478c0-2.13-1.764-3.857-3.941-3.857c-1.285,0-2.423,0.605-3.142,1.536c-0.184-2.371-2.348-4.2-4.88-3.897c-1.851,0.222-3.383,1.622-3.723,3.417c-0.109,0.576-0.098,1.134,0.011,1.659c-0.496-0.523-1.203-0.853-1.99-0.853c-1.44,0-2.616,1.097-2.709,2.484c-0.654-0.142-1.365-0.132-2.115,0.143c-1.432,0.526-2.452,1.846-2.512,3.342c-0.085,2.125,1.65,3.873,3.802,3.873c0.163,0,0.738,0,0.87,0h7.901 M34.182,75.653h0.358"/><path fill="#472b29" d="M44.159,76.153h-3.526c-0.276,0-0.5-0.224-0.5-0.5s0.224-0.5,0.5-0.5h3.526c1.822,0,3.305-1.446,3.305-3.224c0-1.518-1.103-2.844-2.623-3.155c-0.256-0.052-0.429-0.293-0.396-0.553c0.018-0.136,0.029-0.274,0.029-0.415c0-1.851-1.543-3.357-3.44-3.357c-1.087,0-2.088,0.489-2.747,1.342c-0.126,0.164-0.339,0.233-0.539,0.173c-0.198-0.059-0.339-0.234-0.355-0.44c-0.079-1.014-0.562-1.935-1.363-2.591c-0.825-0.677-1.88-0.983-2.959-0.848c-1.639,0.196-2.992,1.436-3.292,3.014c-0.093,0.492-0.09,0.985,0.01,1.464c0.045,0.219-0.06,0.441-0.258,0.545c-0.198,0.102-0.441,0.064-0.594-0.1c-0.426-0.449-1.004-0.696-1.627-0.696c-1.164,0-2.134,0.886-2.209,2.017c-0.01,0.145-0.082,0.279-0.198,0.366c-0.116,0.088-0.264,0.119-0.406,0.089c-0.636-0.137-1.236-0.096-1.837,0.124c-1.256,0.461-2.134,1.624-2.185,2.893c-0.035,0.871,0.282,1.7,0.891,2.333c0.632,0.657,1.488,1.02,2.412,1.02h8.771c0.276,0,0.5,0.224,0.5,0.5s-0.224,0.5-0.5,0.5h-8.771c-1.181,0-2.323-0.483-3.133-1.327c-0.799-0.832-1.214-1.921-1.169-3.066c0.067-1.668,1.208-3.192,2.839-3.791c0.608-0.223,1.239-0.304,1.872-0.244c0.344-1.39,1.624-2.414,3.124-2.414c0.49,0,0.971,0.112,1.406,0.32c0.009-0.239,0.036-0.479,0.082-0.719c0.38-2.002,2.089-3.573,4.155-3.821c1.361-0.16,2.675,0.217,3.713,1.068c0.744,0.61,1.272,1.402,1.539,2.291c0.788-0.645,1.778-1.001,2.83-1.001c2.448,0,4.44,1.955,4.44,4.357c0,0.033,0,0.067-0.001,0.1c1.757,0.553,2.991,2.18,2.991,4.023C48.463,74.259,46.532,76.153,44.159,76.153z M34.54,76.153h-0.358c-0.276,0-0.5-0.224-0.5-0.5s0.224-0.5,0.5-0.5h0.358c0.276,0,0.5,0.224,0.5,0.5S34.816,76.153,34.54,76.153z"/><path fill="#472b29" d="M42.458,70.373c-0.018,0-0.036-0.002-0.055-0.006c-0.135-0.03-0.219-0.164-0.189-0.299c0.037-0.165,0.094-0.325,0.169-0.477c0.603-1.22,2.264-1.67,3.708-1.003c0.125,0.058,0.18,0.207,0.122,0.332c-0.058,0.125-0.207,0.179-0.332,0.122c-1.197-0.553-2.566-0.208-3.05,0.771c-0.057,0.116-0.101,0.239-0.129,0.365C42.676,70.294,42.573,70.373,42.458,70.373z"/><g><path fill="#472b29" d="M37.32,76.153h-1.103c-0.276,0-0.5-0.224-0.5-0.5s0.224-0.5,0.5-0.5h1.103c0.276,0,0.5,0.224,0.5,0.5S37.597,76.153,37.32,76.153z"/></g></g><g><path fill="#fbcd59" d="M51.899 47.45A7.998 7.998 0 1 0 51.899 63.446A7.998 7.998 0 1 0 51.899 47.45Z"/><path fill="#472b29" d="M51.899,63.822c-4.617,0-8.374-3.756-8.374-8.374s3.756-8.374,8.374-8.374s8.374,3.756,8.374,8.374S56.517,63.822,51.899,63.822z M51.899,47.825c-4.204,0-7.624,3.42-7.624,7.624s3.42,7.624,7.624,7.624s7.624-3.42,7.624-7.624S56.103,47.825,51.899,47.825z"/><path fill="#472b29" d="M57.887 57.767c-.02 0-.04-.003-.059-.01-.091-.032-.138-.133-.105-.224.239-.667.36-1.368.36-2.085 0-3.41-2.774-6.184-6.183-6.184-.097 0-.175-.078-.175-.175s.078-.175.175-.175c3.602 0 6.533 2.931 6.533 6.533 0 .757-.128 1.499-.381 2.204C58.026 57.723 57.958 57.767 57.887 57.767zM48.009 60.652c-.038 0-.075-.012-.107-.037-1.611-1.248-2.535-3.132-2.535-5.167 0-2.16 1.066-4.178 2.852-5.398.08-.053.189-.035.243.046.055.08.034.188-.046.243-1.69 1.155-2.699 3.065-2.699 5.109 0 1.926.875 3.709 2.4 4.891.076.059.09.169.031.246C48.113 60.629 48.061 60.652 48.009 60.652zM49.076 61.321c-.026 0-.053-.006-.078-.018-.168-.083-.333-.174-.492-.271-.083-.05-.108-.158-.058-.241s.158-.11.241-.058c.151.092.306.178.465.256.086.043.122.148.079.234C49.202 61.285 49.14 61.321 49.076 61.321zM51.899 61.981c-.663 0-1.315-.099-1.94-.293-.092-.029-.144-.127-.115-.219.029-.092.125-.143.219-.115.591.184 1.208.277 1.836.277.097 0 .175.078.175.175S51.996 61.981 51.899 61.981z"/><g><path fill="#ef9922" d="M51.899 51.926L53.005 54.166 55.476 54.525 53.688 56.268 54.11 58.729 51.899 57.567 49.689 58.729 50.111 56.268 48.323 54.525 50.794 54.166z"/><path fill="#472b29" d="M54.11,58.979c-0.04,0-0.08-0.009-0.116-0.029l-2.094-1.101l-2.094,1.101c-0.084,0.044-0.186,0.037-0.263-0.019c-0.077-0.056-0.116-0.151-0.1-0.245l0.4-2.332l-1.694-1.651c-0.068-0.066-0.093-0.166-0.063-0.256c0.029-0.091,0.108-0.157,0.202-0.17l2.342-0.34l1.047-2.122c0.084-0.17,0.364-0.17,0.448,0l1.047,2.122l2.341,0.34c0.094,0.014,0.172,0.08,0.202,0.17c0.029,0.09,0.005,0.19-0.063,0.256l-1.694,1.651l0.4,2.332c0.016,0.094-0.022,0.189-0.1,0.245C54.213,58.963,54.162,58.979,54.11,58.979z M51.899,57.317c0.04,0,0.08,0.01,0.116,0.029l1.762,0.926l-0.336-1.962c-0.014-0.081,0.013-0.164,0.072-0.221l1.425-1.389l-1.97-0.286c-0.081-0.012-0.152-0.063-0.188-0.137l-0.881-1.786l-0.881,1.786c-0.036,0.074-0.107,0.125-0.188,0.137L48.86,54.7l1.426,1.389c0.059,0.058,0.086,0.14,0.072,0.222l-0.337,1.962l1.762-0.926C51.819,57.327,51.859,57.317,51.899,57.317z"/></g></g></svg>