<?xml version="1.0" encoding="UTF-8"?>
<svg xmlns="http://www.w3.org/2000/svg" xmlns:xlink="http://www.w3.org/1999/xlink" viewBox="0 0 64 64" width="64px" height="64px">
<g id="surface59867854">
<path style=" stroke:none;fill-rule:nonzero;fill:rgb(100%,100%,100%);fill-opacity:1;" d="M 32 11.5 C 20.679688 11.5 11.5 20.679688 11.5 32 C 11.5 43.320312 20.679688 52.5 32 52.5 C 43.320312 52.5 52.5 43.320312 52.5 32 C 52.5 20.679688 43.320312 11.5 32 11.5 Z M 32 11.5 "/>
<path style=" stroke:none;fill-rule:nonzero;fill:rgb(61.960787%,72.549021%,82.745099%);fill-opacity:1;" d="M 33.558594 31.140625 L 31.015625 30.523438 C 30.238281 30.320312 29.746094 29.664062 29.746094 28.882812 C 29.746094 27.941406 30.523438 27.160156 31.46875 27.160156 L 32.695312 27.160156 C 33.558594 27.160156 34.253906 27.859375 34.253906 28.71875 C 34.253906 29.417969 34.789062 29.949219 35.484375 29.949219 C 36.183594 29.949219 36.714844 29.417969 36.714844 28.71875 C 36.714844 26.671875 35.199219 24.988281 33.230469 24.742188 L 33.230469 24.210938 C 33.230469 23.511719 32.695312 22.980469 32 22.980469 C 31.304688 22.980469 30.769531 23.511719 30.769531 24.210938 L 30.769531 24.785156 C 28.800781 25.113281 27.285156 26.835938 27.285156 28.882812 C 27.285156 30.8125 28.597656 32.449219 30.441406 32.941406 L 32.984375 33.558594 C 33.761719 33.761719 34.253906 34.417969 34.253906 35.199219 C 34.253906 36.140625 33.476562 36.921875 32.53125 36.921875 L 31.304688 36.921875 C 30.441406 36.921875 29.746094 36.222656 29.746094 35.363281 C 29.746094 34.664062 29.210938 34.132812 28.515625 34.132812 C 27.816406 34.132812 27.285156 34.664062 27.285156 35.363281 C 27.285156 37.410156 28.800781 39.09375 30.769531 39.339844 L 30.769531 39.871094 C 30.769531 40.570312 31.304688 41.101562 32 41.101562 C 32.695312 41.101562 33.230469 40.570312 33.230469 39.871094 L 33.230469 39.296875 C 35.199219 38.96875 36.714844 37.246094 36.714844 35.199219 C 36.714844 33.230469 35.402344 31.589844 33.558594 31.140625 Z M 33.558594 31.140625 "/>
<path style=" stroke:none;fill-rule:nonzero;fill:rgb(26.666668%,29.411766%,32.941177%);fill-opacity:1;" d="M 32 53.730469 C 31.917969 53.730469 31.835938 53.730469 31.753906 53.6875 C 31.671875 53.6875 31.589844 53.648438 31.507812 53.605469 C 31.425781 53.566406 31.386719 53.523438 31.304688 53.484375 C 31.222656 53.441406 31.179688 53.402344 31.140625 53.320312 C 30.894531 53.074219 30.769531 52.785156 30.769531 52.460938 C 30.769531 52.132812 30.894531 51.804688 31.140625 51.597656 C 31.179688 51.558594 31.261719 51.476562 31.304688 51.433594 C 31.386719 51.394531 31.425781 51.351562 31.507812 51.3125 C 31.589844 51.269531 31.671875 51.269531 31.753906 51.230469 C 32.164062 51.148438 32.574219 51.269531 32.859375 51.558594 C 33.105469 51.804688 33.230469 52.089844 33.230469 52.417969 C 33.230469 52.746094 33.105469 53.074219 32.859375 53.277344 C 32.65625 53.605469 32.328125 53.730469 32 53.730469 Z M 27.160156 53.195312 C 26.507812 53.03125 26.097656 52.378906 26.21875 51.722656 C 26.382812 51.066406 27.039062 50.65625 27.695312 50.777344 C 28.351562 50.941406 28.761719 51.597656 28.636719 52.253906 C 28.515625 52.828125 28.023438 53.195312 27.449219 53.195312 C 27.367188 53.238281 27.242188 53.195312 27.160156 53.195312 Z M 22.570312 51.597656 C 21.953125 51.3125 21.710938 50.574219 21.996094 49.957031 C 22.28125 49.34375 23.019531 49.097656 23.636719 49.382812 C 24.25 49.671875 24.496094 50.410156 24.210938 51.023438 C 24.003906 51.476562 23.554688 51.722656 23.101562 51.722656 C 22.9375 51.722656 22.734375 51.679688 22.570312 51.597656 Z M 18.46875 48.972656 C 17.9375 48.5625 17.855469 47.785156 18.265625 47.253906 C 18.675781 46.71875 19.453125 46.636719 19.988281 47.046875 C 20.519531 47.457031 20.601562 48.234375 20.191406 48.769531 C 19.945312 49.097656 19.578125 49.21875 19.207031 49.21875 C 18.960938 49.261719 18.675781 49.179688 18.46875 48.972656 Z M 15.027344 45.570312 C 14.617188 45.039062 14.699219 44.257812 15.230469 43.847656 C 15.765625 43.4375 16.542969 43.519531 16.953125 44.054688 C 17.363281 44.585938 17.28125 45.367188 16.746094 45.777344 C 16.503906 45.980469 16.257812 46.0625 15.96875 46.0625 C 15.601562 46.023438 15.273438 45.859375 15.027344 45.570312 Z M 12.402344 41.429688 C 12.113281 40.816406 12.359375 40.078125 12.976562 39.789062 C 13.589844 39.503906 14.328125 39.75 14.617188 40.363281 C 14.902344 40.980469 14.65625 41.71875 14.042969 42.003906 C 13.878906 42.085938 13.671875 42.128906 13.507812 42.128906 C 13.058594 42.128906 12.648438 41.882812 12.402344 41.429688 Z M 10.804688 36.839844 C 10.640625 36.183594 11.050781 35.527344 11.746094 35.363281 C 12.402344 35.199219 13.058594 35.609375 13.222656 36.304688 C 13.386719 36.960938 12.976562 37.617188 12.320312 37.78125 C 12.238281 37.820312 12.113281 37.820312 12.03125 37.820312 C 11.460938 37.820312 10.925781 37.410156 10.804688 36.839844 Z M 11.5 33.230469 C 11.171875 33.230469 10.84375 33.105469 10.640625 32.859375 C 10.597656 32.820312 10.515625 32.738281 10.476562 32.695312 C 10.433594 32.613281 10.394531 32.574219 10.351562 32.492188 C 10.3125 32.410156 10.3125 32.328125 10.269531 32.246094 C 10.269531 32.164062 10.230469 32.082031 10.230469 32 C 10.230469 31.917969 10.230469 31.835938 10.269531 31.753906 C 10.269531 31.671875 10.3125 31.589844 10.351562 31.507812 C 10.394531 31.425781 10.433594 31.386719 10.476562 31.304688 C 10.515625 31.222656 10.558594 31.179688 10.640625 31.097656 C 10.722656 31.015625 10.761719 30.976562 10.804688 30.933594 C 10.886719 30.894531 10.925781 30.851562 11.007812 30.8125 C 11.089844 30.769531 11.171875 30.769531 11.253906 30.730469 C 11.664062 30.648438 12.074219 30.769531 12.359375 31.058594 C 12.605469 31.304688 12.730469 31.589844 12.730469 31.917969 C 12.730469 32.246094 12.605469 32.574219 12.359375 32.777344 C 12.320312 32.820312 12.238281 32.902344 12.195312 32.941406 C 12.113281 32.984375 12.074219 33.023438 11.992188 33.066406 C 11.910156 33.105469 11.828125 33.105469 11.746094 33.148438 C 11.664062 33.230469 11.582031 33.230469 11.5 33.230469 Z M 11.5 33.230469 "/>
<path style=" stroke:none;fill-rule:nonzero;fill:rgb(26.666668%,29.411766%,32.941177%);fill-opacity:1;" d="M 16.625 16.625 C 14.820312 18.429688 13.34375 20.5625 12.277344 22.855469 L 11.785156 21.464844 C 11.539062 20.808594 10.84375 20.480469 10.230469 20.726562 C 9.574219 20.972656 9.246094 21.667969 9.492188 22.28125 L 11.132812 26.792969 L 11.132812 26.835938 C 11.132812 26.875 11.171875 26.914062 11.171875 26.914062 C 11.171875 26.957031 11.214844 26.957031 11.214844 26.996094 C 11.214844 27.039062 11.253906 27.039062 11.253906 27.078125 C 11.253906 27.121094 11.296875 27.121094 11.296875 27.160156 C 11.296875 27.203125 11.335938 27.203125 11.335938 27.242188 C 11.378906 27.285156 11.378906 27.285156 11.417969 27.324219 L 11.460938 27.367188 C 11.5 27.367188 11.5 27.40625 11.539062 27.40625 C 11.582031 27.40625 11.582031 27.449219 11.621094 27.449219 C 11.664062 27.449219 11.664062 27.488281 11.703125 27.488281 C 11.746094 27.488281 11.785156 27.53125 11.785156 27.53125 C 11.828125 27.53125 11.828125 27.53125 11.867188 27.570312 C 11.910156 27.570312 11.949219 27.570312 11.992188 27.613281 C 12.03125 27.613281 12.03125 27.613281 12.074219 27.613281 C 12.113281 27.613281 12.15625 27.613281 12.195312 27.613281 L 12.238281 27.613281 C 12.277344 27.613281 12.359375 27.613281 12.402344 27.613281 C 12.441406 27.613281 12.441406 27.613281 12.484375 27.613281 C 12.523438 27.613281 12.566406 27.570312 12.605469 27.570312 L 12.648438 27.570312 C 12.648438 27.570312 12.648438 27.570312 12.6875 27.570312 C 12.6875 27.570312 12.730469 27.570312 12.730469 27.53125 L 17.238281 25.480469 C 17.855469 25.195312 18.140625 24.457031 17.855469 23.839844 C 17.566406 23.226562 16.828125 22.9375 16.214844 23.226562 L 14.371094 24.085938 C 15.3125 21.953125 16.664062 20.027344 18.347656 18.347656 C 25.851562 10.84375 38.066406 10.84375 45.613281 18.347656 C 49.261719 21.996094 51.269531 26.835938 51.269531 32 C 51.269531 42.617188 42.617188 51.269531 32 51.269531 C 31.304688 51.269531 30.769531 51.804688 30.769531 52.5 C 30.769531 53.195312 31.304688 53.730469 32 53.730469 C 43.972656 53.730469 53.730469 43.972656 53.730469 32 C 53.730469 26.179688 51.476562 20.726562 47.375 16.625 C 38.886719 8.179688 25.113281 8.179688 16.625 16.625 Z M 16.625 16.625 "/>
</g>
</svg>
